<?xml version="1.0" encoding="utf-8" standalone="no"?>
<!DOCTYPE svg PUBLIC "-//W3C//DTD SVG 1.1//EN"
  "http://www.w3.org/Graphics/SVG/1.1/DTD/svg11.dtd">
<svg xmlns:xlink="http://www.w3.org/1999/xlink" width="492.742719pt" height="268.473533pt" viewBox="0 0 492.742719 268.473533" xmlns="http://www.w3.org/2000/svg" version="1.1">
 <metadata>
  <rdf:RDF xmlns:dc="http://purl.org/dc/elements/1.1/" xmlns:cc="http://creativecommons.org/ns#" xmlns:rdf="http://www.w3.org/1999/02/22-rdf-syntax-ns#">
   <cc:Work>
    <dc:type rdf:resource="http://purl.org/dc/dcmitype/StillImage"/>
    <dc:date>2024-09-12T22:37:17.264807</dc:date>
    <dc:format>image/svg+xml</dc:format>
    <dc:creator>
     <cc:Agent>
      <dc:title>Matplotlib v3.9.0, https://matplotlib.org/</dc:title>
     </cc:Agent>
    </dc:creator>
   </cc:Work>
  </rdf:RDF>
 </metadata>
 <defs>
  <style type="text/css">*{stroke-linejoin: round; stroke-linecap: butt}</style>
 </defs>
 <g id="figure_1">
  <g id="patch_1">
   <path d="M 0 268.473533 
L 492.742719 268.473533 
L 492.742719 0 
L 0 0 
z
" style="fill: #ffffff"/>
  </g>
  <g id="axes_1">
   <g id="patch_2">
    <path d="M 33.792719 239.66218 
L 312.792719 239.66218 
L 312.792719 17.90218 
L 33.792719 17.90218 
z
" style="fill: #ffffff"/>
   </g>
   <g id="matplotlib.axis_1">
    <g id="xtick_1">
     <g id="line2d_1">
      <defs>
       <path id="m4c28648efb" d="M 0 0 
L 0 -3 
" style="stroke: #000000; stroke-width: 0.5"/>
      </defs>
      <g>
       <use xlink:href="#m4c28648efb" x="45.498074" y="239.66218" style="stroke: #000000; stroke-width: 0.5"/>
      </g>
     </g>
     <g id="line2d_2">
      <defs>
       <path id="mb058c5de3b" d="M 0 0 
L 0 3 
" style="stroke: #000000; stroke-width: 0.5"/>
      </defs>
      <g>
       <use xlink:href="#mb058c5de3b" x="45.498074" y="17.90218" style="stroke: #000000; stroke-width: 0.5"/>
      </g>
     </g>
     <g id="text_1">
      <!-- $\mathdefault{0}$ -->
      <g transform="translate(43.007406 250.080678) scale(0.1 -0.1)">
       <defs>
        <path id="CMR17-30" d="M 2688 2025 
C 2688 2416 2682 3080 2413 3591 
C 2176 4039 1798 4198 1466 4198 
C 1158 4198 768 4058 525 3597 
C 269 3118 243 2524 243 2025 
C 243 1661 250 1106 448 619 
C 723 -39 1216 -128 1466 -128 
C 1760 -128 2208 -7 2470 600 
C 2662 1042 2688 1559 2688 2025 
z
M 1466 -26 
C 1056 -26 813 325 723 812 
C 653 1188 653 1738 653 2096 
C 653 2588 653 2997 736 3387 
C 858 3929 1216 4096 1466 4096 
C 1728 4096 2067 3923 2189 3400 
C 2272 3036 2278 2607 2278 2096 
C 2278 1680 2278 1169 2202 792 
C 2067 95 1690 -26 1466 -26 
z
" transform="scale(0.015625)"/>
       </defs>
       <use xlink:href="#CMR17-30" transform="scale(0.996264)"/>
      </g>
     </g>
    </g>
    <g id="xtick_2">
     <g id="line2d_3">
      <g>
       <use xlink:href="#m4c28648efb" x="94.321243" y="239.66218" style="stroke: #000000; stroke-width: 0.5"/>
      </g>
     </g>
     <g id="line2d_4">
      <g>
       <use xlink:href="#mb058c5de3b" x="94.321243" y="17.90218" style="stroke: #000000; stroke-width: 0.5"/>
      </g>
     </g>
     <g id="text_2">
      <!-- $\mathdefault{1000}$ -->
      <g transform="translate(84.358573 250.080678) scale(0.1 -0.1)">
       <defs>
        <path id="CMR17-31" d="M 1702 4058 
C 1702 4192 1696 4192 1606 4192 
C 1357 3916 979 3827 621 3827 
C 602 3827 570 3827 563 3808 
C 557 3795 557 3782 557 3648 
C 755 3648 1088 3686 1344 3839 
L 1344 461 
C 1344 236 1331 160 781 160 
L 589 160 
L 589 0 
C 896 0 1216 0 1523 0 
C 1830 0 2150 0 2458 0 
L 2458 160 
L 2266 160 
C 1715 160 1702 230 1702 458 
L 1702 4058 
z
" transform="scale(0.015625)"/>
       </defs>
       <use xlink:href="#CMR17-31" transform="scale(0.996264)"/>
       <use xlink:href="#CMR17-30" transform="translate(45.690477 0) scale(0.996264)"/>
       <use xlink:href="#CMR17-30" transform="translate(91.380954 0) scale(0.996264)"/>
       <use xlink:href="#CMR17-30" transform="translate(137.071431 0) scale(0.996264)"/>
      </g>
     </g>
    </g>
    <g id="xtick_3">
     <g id="line2d_5">
      <g>
       <use xlink:href="#m4c28648efb" x="143.144412" y="239.66218" style="stroke: #000000; stroke-width: 0.5"/>
      </g>
     </g>
     <g id="line2d_6">
      <g>
       <use xlink:href="#mb058c5de3b" x="143.144412" y="17.90218" style="stroke: #000000; stroke-width: 0.5"/>
      </g>
     </g>
     <g id="text_3">
      <!-- $\mathdefault{2000}$ -->
      <g transform="translate(133.181742 250.080678) scale(0.1 -0.1)">
       <defs>
        <path id="CMR17-32" d="M 2669 989 
L 2554 989 
C 2490 536 2438 459 2413 420 
C 2381 369 1920 369 1830 369 
L 602 369 
C 832 619 1280 1072 1824 1597 
C 2214 1967 2669 2402 2669 3035 
C 2669 3790 2067 4224 1395 4224 
C 691 4224 262 3604 262 3030 
C 262 2780 448 2748 525 2748 
C 589 2748 781 2787 781 3010 
C 781 3207 614 3264 525 3264 
C 486 3264 448 3258 422 3245 
C 544 3790 915 4058 1306 4058 
C 1862 4058 2227 3617 2227 3035 
C 2227 2479 1901 2000 1536 1584 
L 262 146 
L 262 0 
L 2515 0 
L 2669 989 
z
" transform="scale(0.015625)"/>
       </defs>
       <use xlink:href="#CMR17-32" transform="scale(0.996264)"/>
       <use xlink:href="#CMR17-30" transform="translate(45.690477 0) scale(0.996264)"/>
       <use xlink:href="#CMR17-30" transform="translate(91.380954 0) scale(0.996264)"/>
       <use xlink:href="#CMR17-30" transform="translate(137.071431 0) scale(0.996264)"/>
      </g>
     </g>
    </g>
    <g id="xtick_4">
     <g id="line2d_7">
      <g>
       <use xlink:href="#m4c28648efb" x="191.967581" y="239.66218" style="stroke: #000000; stroke-width: 0.5"/>
      </g>
     </g>
     <g id="line2d_8">
      <g>
       <use xlink:href="#mb058c5de3b" x="191.967581" y="17.90218" style="stroke: #000000; stroke-width: 0.5"/>
      </g>
     </g>
     <g id="text_4">
      <!-- $\mathdefault{3000}$ -->
      <g transform="translate(182.004911 250.080678) scale(0.1 -0.1)">
       <defs>
        <path id="CMR17-33" d="M 1414 2157 
C 1984 2157 2234 1662 2234 1090 
C 2234 320 1824 25 1453 25 
C 1114 25 563 194 390 693 
C 422 680 454 680 486 680 
C 640 680 755 782 755 948 
C 755 1133 614 1216 486 1216 
C 378 1216 211 1165 211 926 
C 211 335 787 -128 1466 -128 
C 2176 -128 2720 430 2720 1085 
C 2720 1707 2208 2157 1600 2227 
C 2086 2328 2554 2756 2554 3329 
C 2554 3820 2048 4179 1472 4179 
C 890 4179 378 3829 378 3329 
C 378 3110 544 3072 627 3072 
C 762 3072 877 3155 877 3321 
C 877 3486 762 3569 627 3569 
C 602 3569 570 3569 544 3557 
C 730 3959 1235 4032 1459 4032 
C 1683 4032 2106 3925 2106 3320 
C 2106 3143 2080 2828 1862 2550 
C 1670 2304 1453 2304 1242 2284 
C 1210 2284 1062 2269 1037 2269 
C 992 2263 966 2257 966 2208 
C 966 2163 973 2157 1101 2157 
L 1414 2157 
z
" transform="scale(0.015625)"/>
       </defs>
       <use xlink:href="#CMR17-33" transform="scale(0.996264)"/>
       <use xlink:href="#CMR17-30" transform="translate(45.690477 0) scale(0.996264)"/>
       <use xlink:href="#CMR17-30" transform="translate(91.380954 0) scale(0.996264)"/>
       <use xlink:href="#CMR17-30" transform="translate(137.071431 0) scale(0.996264)"/>
      </g>
     </g>
    </g>
    <g id="xtick_5">
     <g id="line2d_9">
      <g>
       <use xlink:href="#m4c28648efb" x="240.79075" y="239.66218" style="stroke: #000000; stroke-width: 0.5"/>
      </g>
     </g>
     <g id="line2d_10">
      <g>
       <use xlink:href="#mb058c5de3b" x="240.79075" y="17.90218" style="stroke: #000000; stroke-width: 0.5"/>
      </g>
     </g>
     <g id="text_5">
      <!-- $\mathdefault{4000}$ -->
      <g transform="translate(230.82808 250.080678) scale(0.1 -0.1)">
       <defs>
        <path id="CMR17-34" d="M 2150 4122 
C 2150 4256 2144 4256 2029 4256 
L 128 1254 
L 128 1088 
L 1779 1088 
L 1779 457 
C 1779 224 1766 160 1318 160 
L 1197 160 
L 1197 0 
C 1402 0 1747 0 1965 0 
C 2182 0 2528 0 2733 0 
L 2733 160 
L 2611 160 
C 2163 160 2150 224 2150 457 
L 2150 1088 
L 2803 1088 
L 2803 1254 
L 2150 1254 
L 2150 4122 
z
M 1798 3703 
L 1798 1254 
L 256 1254 
L 1798 3703 
z
" transform="scale(0.015625)"/>
       </defs>
       <use xlink:href="#CMR17-34" transform="scale(0.996264)"/>
       <use xlink:href="#CMR17-30" transform="translate(45.690477 0) scale(0.996264)"/>
       <use xlink:href="#CMR17-30" transform="translate(91.380954 0) scale(0.996264)"/>
       <use xlink:href="#CMR17-30" transform="translate(137.071431 0) scale(0.996264)"/>
      </g>
     </g>
    </g>
    <g id="xtick_6">
     <g id="line2d_11">
      <g>
       <use xlink:href="#m4c28648efb" x="289.61392" y="239.66218" style="stroke: #000000; stroke-width: 0.5"/>
      </g>
     </g>
     <g id="line2d_12">
      <g>
       <use xlink:href="#mb058c5de3b" x="289.61392" y="17.90218" style="stroke: #000000; stroke-width: 0.5"/>
      </g>
     </g>
     <g id="text_6">
      <!-- $\mathdefault{5000}$ -->
      <g transform="translate(279.651249 250.080678) scale(0.1 -0.1)">
       <defs>
        <path id="CMR17-35" d="M 730 3692 
C 794 3666 1056 3584 1325 3584 
C 1920 3584 2246 3911 2432 4100 
C 2432 4157 2432 4192 2394 4192 
C 2387 4192 2374 4192 2323 4163 
C 2099 4058 1837 3973 1517 3973 
C 1325 3973 1037 3999 723 4139 
C 653 4171 640 4171 634 4171 
C 602 4171 595 4164 595 4037 
L 595 2203 
C 595 2089 595 2057 659 2057 
C 691 2057 704 2070 736 2114 
C 941 2401 1222 2522 1542 2522 
C 1766 2522 2246 2382 2246 1289 
C 2246 1085 2246 715 2054 421 
C 1894 159 1645 25 1370 25 
C 947 25 518 320 403 814 
C 429 807 480 795 506 795 
C 589 795 749 840 749 1038 
C 749 1210 627 1280 506 1280 
C 358 1280 262 1190 262 1011 
C 262 454 704 -128 1382 -128 
C 2042 -128 2669 440 2669 1264 
C 2669 2030 2170 2624 1549 2624 
C 1222 2624 947 2503 730 2274 
L 730 3692 
z
" transform="scale(0.015625)"/>
       </defs>
       <use xlink:href="#CMR17-35" transform="scale(0.996264)"/>
       <use xlink:href="#CMR17-30" transform="translate(45.690477 0) scale(0.996264)"/>
       <use xlink:href="#CMR17-30" transform="translate(91.380954 0) scale(0.996264)"/>
       <use xlink:href="#CMR17-30" transform="translate(137.071431 0) scale(0.996264)"/>
      </g>
     </g>
    </g>
    <g id="xtick_7">
     <g id="line2d_13">
      <defs>
       <path id="mc61d416841" d="M 0 0 
L 0 -1.5 
" style="stroke: #000000; stroke-width: 0.5"/>
      </defs>
      <g>
       <use xlink:href="#mc61d416841" x="35.73344" y="239.66218" style="stroke: #000000; stroke-width: 0.5"/>
      </g>
     </g>
     <g id="line2d_14">
      <defs>
       <path id="meb4edbe2e9" d="M 0 0 
L 0 1.5 
" style="stroke: #000000; stroke-width: 0.5"/>
      </defs>
      <g>
       <use xlink:href="#meb4edbe2e9" x="35.73344" y="17.90218" style="stroke: #000000; stroke-width: 0.5"/>
      </g>
     </g>
    </g>
    <g id="xtick_8">
     <g id="line2d_15">
      <g>
       <use xlink:href="#mc61d416841" x="55.262708" y="239.66218" style="stroke: #000000; stroke-width: 0.5"/>
      </g>
     </g>
     <g id="line2d_16">
      <g>
       <use xlink:href="#meb4edbe2e9" x="55.262708" y="17.90218" style="stroke: #000000; stroke-width: 0.5"/>
      </g>
     </g>
    </g>
    <g id="xtick_9">
     <g id="line2d_17">
      <g>
       <use xlink:href="#mc61d416841" x="65.027342" y="239.66218" style="stroke: #000000; stroke-width: 0.5"/>
      </g>
     </g>
     <g id="line2d_18">
      <g>
       <use xlink:href="#meb4edbe2e9" x="65.027342" y="17.90218" style="stroke: #000000; stroke-width: 0.5"/>
      </g>
     </g>
    </g>
    <g id="xtick_10">
     <g id="line2d_19">
      <g>
       <use xlink:href="#mc61d416841" x="74.791975" y="239.66218" style="stroke: #000000; stroke-width: 0.5"/>
      </g>
     </g>
     <g id="line2d_20">
      <g>
       <use xlink:href="#meb4edbe2e9" x="74.791975" y="17.90218" style="stroke: #000000; stroke-width: 0.5"/>
      </g>
     </g>
    </g>
    <g id="xtick_11">
     <g id="line2d_21">
      <g>
       <use xlink:href="#mc61d416841" x="84.556609" y="239.66218" style="stroke: #000000; stroke-width: 0.5"/>
      </g>
     </g>
     <g id="line2d_22">
      <g>
       <use xlink:href="#meb4edbe2e9" x="84.556609" y="17.90218" style="stroke: #000000; stroke-width: 0.5"/>
      </g>
     </g>
    </g>
    <g id="xtick_12">
     <g id="line2d_23">
      <g>
       <use xlink:href="#mc61d416841" x="104.085877" y="239.66218" style="stroke: #000000; stroke-width: 0.5"/>
      </g>
     </g>
     <g id="line2d_24">
      <g>
       <use xlink:href="#meb4edbe2e9" x="104.085877" y="17.90218" style="stroke: #000000; stroke-width: 0.5"/>
      </g>
     </g>
    </g>
    <g id="xtick_13">
     <g id="line2d_25">
      <g>
       <use xlink:href="#mc61d416841" x="113.850511" y="239.66218" style="stroke: #000000; stroke-width: 0.5"/>
      </g>
     </g>
     <g id="line2d_26">
      <g>
       <use xlink:href="#meb4edbe2e9" x="113.850511" y="17.90218" style="stroke: #000000; stroke-width: 0.5"/>
      </g>
     </g>
    </g>
    <g id="xtick_14">
     <g id="line2d_27">
      <g>
       <use xlink:href="#mc61d416841" x="123.615144" y="239.66218" style="stroke: #000000; stroke-width: 0.5"/>
      </g>
     </g>
     <g id="line2d_28">
      <g>
       <use xlink:href="#meb4edbe2e9" x="123.615144" y="17.90218" style="stroke: #000000; stroke-width: 0.5"/>
      </g>
     </g>
    </g>
    <g id="xtick_15">
     <g id="line2d_29">
      <g>
       <use xlink:href="#mc61d416841" x="133.379778" y="239.66218" style="stroke: #000000; stroke-width: 0.5"/>
      </g>
     </g>
     <g id="line2d_30">
      <g>
       <use xlink:href="#meb4edbe2e9" x="133.379778" y="17.90218" style="stroke: #000000; stroke-width: 0.5"/>
      </g>
     </g>
    </g>
    <g id="xtick_16">
     <g id="line2d_31">
      <g>
       <use xlink:href="#mc61d416841" x="152.909046" y="239.66218" style="stroke: #000000; stroke-width: 0.5"/>
      </g>
     </g>
     <g id="line2d_32">
      <g>
       <use xlink:href="#meb4edbe2e9" x="152.909046" y="17.90218" style="stroke: #000000; stroke-width: 0.5"/>
      </g>
     </g>
    </g>
    <g id="xtick_17">
     <g id="line2d_33">
      <g>
       <use xlink:href="#mc61d416841" x="162.67368" y="239.66218" style="stroke: #000000; stroke-width: 0.5"/>
      </g>
     </g>
     <g id="line2d_34">
      <g>
       <use xlink:href="#meb4edbe2e9" x="162.67368" y="17.90218" style="stroke: #000000; stroke-width: 0.5"/>
      </g>
     </g>
    </g>
    <g id="xtick_18">
     <g id="line2d_35">
      <g>
       <use xlink:href="#mc61d416841" x="172.438314" y="239.66218" style="stroke: #000000; stroke-width: 0.5"/>
      </g>
     </g>
     <g id="line2d_36">
      <g>
       <use xlink:href="#meb4edbe2e9" x="172.438314" y="17.90218" style="stroke: #000000; stroke-width: 0.5"/>
      </g>
     </g>
    </g>
    <g id="xtick_19">
     <g id="line2d_37">
      <g>
       <use xlink:href="#mc61d416841" x="182.202947" y="239.66218" style="stroke: #000000; stroke-width: 0.5"/>
      </g>
     </g>
     <g id="line2d_38">
      <g>
       <use xlink:href="#meb4edbe2e9" x="182.202947" y="17.90218" style="stroke: #000000; stroke-width: 0.5"/>
      </g>
     </g>
    </g>
    <g id="xtick_20">
     <g id="line2d_39">
      <g>
       <use xlink:href="#mc61d416841" x="201.732215" y="239.66218" style="stroke: #000000; stroke-width: 0.5"/>
      </g>
     </g>
     <g id="line2d_40">
      <g>
       <use xlink:href="#meb4edbe2e9" x="201.732215" y="17.90218" style="stroke: #000000; stroke-width: 0.5"/>
      </g>
     </g>
    </g>
    <g id="xtick_21">
     <g id="line2d_41">
      <g>
       <use xlink:href="#mc61d416841" x="211.496849" y="239.66218" style="stroke: #000000; stroke-width: 0.5"/>
      </g>
     </g>
     <g id="line2d_42">
      <g>
       <use xlink:href="#meb4edbe2e9" x="211.496849" y="17.90218" style="stroke: #000000; stroke-width: 0.5"/>
      </g>
     </g>
    </g>
    <g id="xtick_22">
     <g id="line2d_43">
      <g>
       <use xlink:href="#mc61d416841" x="221.261483" y="239.66218" style="stroke: #000000; stroke-width: 0.5"/>
      </g>
     </g>
     <g id="line2d_44">
      <g>
       <use xlink:href="#meb4edbe2e9" x="221.261483" y="17.90218" style="stroke: #000000; stroke-width: 0.5"/>
      </g>
     </g>
    </g>
    <g id="xtick_23">
     <g id="line2d_45">
      <g>
       <use xlink:href="#mc61d416841" x="231.026117" y="239.66218" style="stroke: #000000; stroke-width: 0.5"/>
      </g>
     </g>
     <g id="line2d_46">
      <g>
       <use xlink:href="#meb4edbe2e9" x="231.026117" y="17.90218" style="stroke: #000000; stroke-width: 0.5"/>
      </g>
     </g>
    </g>
    <g id="xtick_24">
     <g id="line2d_47">
      <g>
       <use xlink:href="#mc61d416841" x="250.555384" y="239.66218" style="stroke: #000000; stroke-width: 0.5"/>
      </g>
     </g>
     <g id="line2d_48">
      <g>
       <use xlink:href="#meb4edbe2e9" x="250.555384" y="17.90218" style="stroke: #000000; stroke-width: 0.5"/>
      </g>
     </g>
    </g>
    <g id="xtick_25">
     <g id="line2d_49">
      <g>
       <use xlink:href="#mc61d416841" x="260.320018" y="239.66218" style="stroke: #000000; stroke-width: 0.5"/>
      </g>
     </g>
     <g id="line2d_50">
      <g>
       <use xlink:href="#meb4edbe2e9" x="260.320018" y="17.90218" style="stroke: #000000; stroke-width: 0.5"/>
      </g>
     </g>
    </g>
    <g id="xtick_26">
     <g id="line2d_51">
      <g>
       <use xlink:href="#mc61d416841" x="270.084652" y="239.66218" style="stroke: #000000; stroke-width: 0.5"/>
      </g>
     </g>
     <g id="line2d_52">
      <g>
       <use xlink:href="#meb4edbe2e9" x="270.084652" y="17.90218" style="stroke: #000000; stroke-width: 0.5"/>
      </g>
     </g>
    </g>
    <g id="xtick_27">
     <g id="line2d_53">
      <g>
       <use xlink:href="#mc61d416841" x="279.849286" y="239.66218" style="stroke: #000000; stroke-width: 0.5"/>
      </g>
     </g>
     <g id="line2d_54">
      <g>
       <use xlink:href="#meb4edbe2e9" x="279.849286" y="17.90218" style="stroke: #000000; stroke-width: 0.5"/>
      </g>
     </g>
    </g>
    <g id="xtick_28">
     <g id="line2d_55">
      <g>
       <use xlink:href="#mc61d416841" x="299.378553" y="239.66218" style="stroke: #000000; stroke-width: 0.5"/>
      </g>
     </g>
     <g id="line2d_56">
      <g>
       <use xlink:href="#meb4edbe2e9" x="299.378553" y="17.90218" style="stroke: #000000; stroke-width: 0.5"/>
      </g>
     </g>
    </g>
    <g id="xtick_29">
     <g id="line2d_57">
      <g>
       <use xlink:href="#mc61d416841" x="309.143187" y="239.66218" style="stroke: #000000; stroke-width: 0.5"/>
      </g>
     </g>
     <g id="line2d_58">
      <g>
       <use xlink:href="#meb4edbe2e9" x="309.143187" y="17.90218" style="stroke: #000000; stroke-width: 0.5"/>
      </g>
     </g>
    </g>
    <g id="text_7">
     <!-- Number Experiments for Training -->
     <g transform="translate(98.97404 262.936355) scale(0.1 -0.1)">
      <defs>
       <path id="CMR17-4e" d="M 1312 4250 
C 1267 4320 1261 4320 1139 4320 
L 326 4320 
L 326 4160 
L 448 4160 
C 704 4160 819 4129 838 4122 
L 838 610 
C 838 451 838 153 326 153 
L 326 -13 
C 474 0 742 0 902 0 
C 1062 0 1331 0 1478 -13 
L 1478 153 
C 966 153 966 451 966 610 
L 966 4033 
C 1011 3995 1011 3982 1056 3919 
L 3430 76 
C 3475 0 3494 0 3526 0 
C 3590 0 3590 19 3590 139 
L 3590 3705 
C 3590 3863 3590 4160 4102 4160 
L 4102 4326 
C 3955 4320 3686 4320 3526 4320 
C 3366 4320 3098 4320 2950 4326 
L 2950 4160 
C 3462 4160 3462 3862 3462 3703 
L 3462 763 
L 1312 4250 
z
" transform="scale(0.015625)"/>
       <path id="CMR17-75" d="M 1882 2693 
L 1882 2528 
C 2259 2528 2317 2489 2317 2186 
L 2317 1032 
C 2317 500 2029 38 1555 38 
C 1030 38 986 348 986 678 
L 986 2763 
L 211 2693 
L 211 2528 
C 467 2528 640 2528 646 2274 
L 646 1058 
C 646 633 646 361 813 183 
C 896 101 1056 -64 1517 -64 
C 2061 -64 2272 377 2323 506 
L 2330 506 
L 2330 -63 
L 3091 -63 
L 3091 128 
C 2714 128 2656 166 2656 473 
L 2656 2763 
L 1882 2693 
z
" transform="scale(0.015625)"/>
       <path id="CMR17-6d" d="M 4326 1933 
C 4326 2252 4269 2790 3507 2790 
C 3072 2790 2771 2496 2656 2151 
L 2650 2151 
C 2573 2676 2195 2790 1837 2790 
C 1331 2790 1069 2400 973 2144 
L 966 2144 
L 966 2790 
L 211 2720 
L 211 2554 
C 589 2554 646 2515 646 2208 
L 646 428 
C 646 184 621 153 211 153 
L 211 -13 
C 365 0 646 0 813 0 
C 979 0 1267 0 1421 -13 
L 1421 153 
C 1011 153 986 178 986 428 
L 986 1658 
C 986 2247 1344 2688 1792 2688 
C 2266 2688 2317 2266 2317 1958 
L 2317 428 
C 2317 184 2291 153 1882 153 
L 1882 -13 
C 2035 0 2317 0 2483 0 
C 2650 0 2938 0 3091 -13 
L 3091 153 
C 2682 153 2656 178 2656 428 
L 2656 1658 
C 2656 2247 3014 2688 3462 2688 
C 3936 2688 3987 2266 3987 1958 
L 3987 428 
C 3987 184 3962 153 3552 153 
L 3552 -13 
C 3706 0 3987 0 4154 0 
C 4320 0 4608 0 4762 -13 
L 4762 153 
C 4352 153 4326 178 4326 428 
L 4326 1933 
z
" transform="scale(0.015625)"/>
       <path id="CMR17-62" d="M 960 4396 
L 198 4326 
L 198 4160 
C 576 4160 634 4122 634 3817 
L 634 -13 
L 749 -13 
L 934 441 
C 1120 141 1395 -64 1766 -64 
C 2406 -64 3053 500 3053 1370 
C 3053 2188 2477 2790 1830 2790 
C 1434 2790 1152 2579 960 2330 
L 960 4396 
z
M 973 2004 
C 973 2118 973 2138 1062 2272 
C 1312 2657 1670 2688 1792 2688 
C 1984 2688 2643 2585 2643 1376 
C 2643 108 1888 38 1734 38 
C 1536 38 1248 114 1043 486 
C 973 608 973 621 973 735 
L 973 2004 
z
" transform="scale(0.015625)"/>
       <path id="CMR17-65" d="M 2438 1472 
C 2464 1498 2464 1511 2464 1576 
C 2464 2238 2118 2816 1389 2816 
C 710 2816 173 2169 173 1383 
C 173 551 781 -64 1459 -64 
C 2176 -64 2458 607 2458 740 
C 2458 784 2419 784 2406 784 
C 2362 784 2355 771 2330 696 
C 2189 265 1837 51 1504 51 
C 1229 51 954 203 781 480 
C 582 803 582 1176 582 1472 
L 2438 1472 
z
M 589 1568 
C 634 2505 1126 2714 1382 2714 
C 1818 2714 2112 2297 2118 1568 
L 589 1568 
z
" transform="scale(0.015625)"/>
       <path id="CMR17-72" d="M 960 1497 
C 960 2112 1222 2688 1702 2688 
C 1747 2688 1792 2682 1837 2662 
C 1837 2662 1696 2617 1696 2452 
C 1696 2298 1818 2234 1914 2234 
C 1990 2234 2131 2279 2131 2458 
C 2131 2663 1926 2790 1709 2790 
C 1222 2790 1011 2317 947 2093 
L 941 2093 
L 941 2790 
L 198 2720 
L 198 2554 
C 576 2554 634 2515 634 2208 
L 634 428 
C 634 184 608 153 198 153 
L 198 -13 
C 352 0 646 0 813 0 
C 998 0 1325 0 1498 -13 
L 1498 153 
C 1037 153 960 153 960 440 
L 960 1497 
z
" transform="scale(0.015625)"/>
       <path id="CMR17-45" d="M 3885 1615 
L 3770 1615 
C 3629 676 3546 166 2419 166 
L 1530 166 
C 1274 166 1261 197 1261 414 
L 1261 2176 
L 1862 2176 
C 2464 2176 2522 1960 2522 1430 
L 2637 1430 
L 2637 3081 
L 2522 3081 
C 2522 2557 2464 2342 1862 2342 
L 1261 2342 
L 1261 3913 
C 1261 4128 1274 4160 1530 4160 
L 2406 4160 
C 3398 4160 3514 3769 3603 2929 
L 3718 2929 
L 3565 4325 
L 326 4325 
L 326 4160 
C 768 4160 838 4160 838 3874 
L 838 451 
C 838 166 768 166 326 166 
L 326 0 
L 3654 0 
L 3885 1615 
z
" transform="scale(0.015625)"/>
       <path id="CMR17-78" d="M 1664 1477 
C 1856 1726 2074 2006 2253 2216 
C 2464 2458 2707 2560 2989 2560 
L 2989 2726 
C 2880 2726 2656 2726 2541 2726 
C 2368 2726 2170 2726 2022 2732 
L 2022 2566 
C 2112 2553 2163 2489 2163 2400 
C 2163 2285 2099 2215 2067 2171 
L 1594 1573 
L 1030 2306 
C 973 2376 973 2388 973 2420 
C 973 2497 1037 2560 1146 2560 
L 1146 2732 
C 992 2726 717 2726 557 2726 
C 384 2726 179 2726 38 2732 
L 38 2560 
C 384 2560 461 2534 614 2343 
L 1350 1395 
C 1363 1382 1395 1344 1395 1325 
C 1395 1299 838 619 768 530 
C 480 185 179 160 6 160 
L 6 0 
C 115 0 339 0 454 0 
C 582 0 864 0 979 -6 
L 979 160 
C 941 166 838 179 838 325 
C 838 440 890 510 947 586 
L 1478 1236 
L 2035 512 
C 2086 442 2163 346 2163 301 
C 2163 211 2086 160 1984 160 
L 1984 -6 
C 2138 0 2413 0 2573 0 
C 2746 0 2950 0 3091 -6 
L 3091 160 
C 2771 160 2675 172 2522 370 
L 1664 1477 
z
" transform="scale(0.015625)"/>
       <path id="CMR17-70" d="M 1408 -1063 
C 998 -1063 973 -1037 973 -789 
L 973 402 
C 1158 134 1427 -38 1766 -38 
C 2406 -38 3053 523 3053 1388 
C 3053 2191 2496 2802 1837 2802 
C 1453 2802 1139 2592 960 2338 
L 960 2802 
L 198 2732 
L 198 2567 
C 576 2567 634 2528 634 2223 
L 634 -789 
C 634 -1031 608 -1063 198 -1063 
L 198 -1228 
C 352 -1216 634 -1216 800 -1216 
C 966 -1216 1254 -1216 1408 -1228 
L 1408 -1063 
z
M 973 2012 
C 973 2102 973 2235 1222 2471 
C 1254 2497 1472 2688 1792 2688 
C 2259 2688 2643 2108 2643 1382 
C 2643 656 2234 64 1728 64 
C 1498 64 1248 172 1056 472 
C 973 612 973 650 973 752 
L 973 2012 
z
" transform="scale(0.015625)"/>
       <path id="CMR17-69" d="M 992 3909 
C 992 4049 877 4170 730 4170 
C 589 4170 467 4056 467 3909 
C 467 3769 582 3648 730 3648 
C 870 3648 992 3763 992 3909 
z
M 243 2706 
L 243 2541 
C 602 2541 653 2502 653 2197 
L 653 427 
C 653 184 627 153 218 153 
L 218 -13 
C 371 0 646 0 806 0 
C 960 0 1222 0 1370 -13 
L 1370 153 
C 992 153 979 191 979 420 
L 979 2776 
L 243 2706 
z
" transform="scale(0.015625)"/>
       <path id="CMR17-6e" d="M 2656 1933 
C 2656 2259 2592 2790 1837 2790 
C 1331 2790 1069 2400 973 2144 
L 966 2144 
L 966 2790 
L 211 2720 
L 211 2554 
C 589 2554 646 2515 646 2208 
L 646 428 
C 646 184 621 153 211 153 
L 211 -13 
C 365 0 646 0 813 0 
C 979 0 1267 0 1421 -13 
L 1421 153 
C 1011 153 986 178 986 428 
L 986 1658 
C 986 2247 1344 2688 1792 2688 
C 2266 2688 2317 2266 2317 1958 
L 2317 428 
C 2317 184 2291 153 1882 153 
L 1882 -13 
C 2035 0 2317 0 2483 0 
C 2650 0 2938 0 3091 -13 
L 3091 153 
C 2682 153 2656 178 2656 428 
L 2656 1933 
z
" transform="scale(0.015625)"/>
       <path id="CMR17-74" d="M 966 2560 
L 1862 2560 
L 1862 2725 
L 966 2725 
L 966 3904 
L 851 3904 
C 838 3245 614 2668 70 2668 
L 70 2560 
L 627 2560 
L 627 771 
C 627 650 627 -64 1370 -64 
C 1747 -64 1965 306 1965 777 
L 1965 1140 
L 1850 1140 
L 1850 783 
C 1850 344 1677 51 1408 51 
C 1222 51 966 178 966 758 
L 966 2560 
z
" transform="scale(0.015625)"/>
       <path id="CMR17-73" d="M 1978 2697 
C 1978 2813 1971 2819 1933 2819 
C 1907 2819 1901 2813 1824 2717 
C 1805 2691 1747 2626 1728 2601 
C 1523 2819 1235 2819 1126 2819 
C 416 2819 160 2447 160 2076 
C 160 1498 813 1365 998 1325 
C 1402 1243 1542 1217 1677 1101 
C 1760 1025 1901 884 1901 654 
C 1901 384 1747 38 1158 38 
C 602 38 403 460 288 1021 
C 269 1110 269 1117 218 1117 
C 166 1117 160 1110 160 983 
L 160 63 
C 160 -51 166 -58 205 -58 
C 237 -58 243 -51 275 0 
C 314 57 410 211 448 276 
C 576 103 800 -64 1158 -64 
C 1792 -64 2131 283 2131 784 
C 2131 1112 1958 1285 1875 1362 
C 1683 1561 1459 1606 1190 1657 
C 838 1735 390 1825 390 2217 
C 390 2383 480 2737 1126 2737 
C 1811 2737 1850 2094 1862 1888 
C 1869 1856 1901 1849 1920 1849 
C 1978 1849 1978 1869 1978 1978 
L 1978 2697 
z
" transform="scale(0.015625)"/>
       <path id="CMR17-66" d="M 979 2560 
L 1709 2560 
L 1709 2725 
L 966 2725 
L 966 3494 
C 966 4022 1235 4352 1510 4352 
C 1594 4352 1690 4327 1754 4282 
C 1702 4269 1568 4225 1568 4067 
C 1568 3901 1696 3850 1786 3850 
C 1875 3850 2003 3901 2003 4067 
C 2003 4308 1773 4454 1517 4454 
C 1152 4454 653 4156 653 3481 
L 653 2725 
L 141 2725 
L 141 2560 
L 653 2560 
L 653 427 
C 653 184 627 153 218 153 
L 218 -13 
C 371 0 666 0 832 0 
C 1018 0 1344 0 1517 -13 
L 1517 153 
C 1056 153 979 153 979 439 
L 979 2560 
z
" transform="scale(0.015625)"/>
       <path id="CMR17-6f" d="M 2758 1356 
C 2758 2176 2163 2816 1466 2816 
C 768 2816 173 2176 173 1356 
C 173 551 768 -64 1466 -64 
C 2163 -64 2758 551 2758 1356 
z
M 1466 51 
C 1165 51 909 230 762 480 
C 602 767 582 1126 582 1408 
C 582 1677 595 2010 762 2298 
C 890 2509 1139 2714 1466 2714 
C 1754 2714 1997 2554 2150 2330 
C 2349 2029 2349 1607 2349 1408 
C 2349 1158 2336 775 2163 467 
C 1984 173 1709 51 1466 51 
z
" transform="scale(0.015625)"/>
       <path id="CMR17-54" d="M 3981 4326 
L 288 4326 
L 179 2918 
L 294 2918 
C 378 3976 467 4160 1453 4160 
C 1568 4160 1754 4160 1805 4154 
C 1926 4135 1926 4058 1926 3912 
L 1926 459 
C 1926 230 1907 160 1376 160 
L 1197 160 
L 1197 0 
C 1504 0 1824 0 2138 0 
C 2451 0 2771 0 3078 0 
L 3078 160 
L 2899 160 
C 2368 160 2349 230 2349 459 
L 2349 3912 
C 2349 4052 2349 4129 2464 4154 
C 2515 4160 2701 4160 2816 4160 
C 3795 4160 3891 3976 3974 2918 
L 4090 2918 
L 3981 4326 
z
" transform="scale(0.015625)"/>
       <path id="CMR17-61" d="M 2304 1653 
C 2304 2072 2304 2294 2035 2543 
C 1798 2752 1523 2816 1306 2816 
C 800 2816 435 2407 435 1971 
C 435 1728 627 1728 666 1728 
C 749 1728 896 1778 896 1954 
C 896 2112 774 2181 666 2181 
C 640 2181 608 2174 589 2168 
C 723 2592 1069 2714 1293 2714 
C 1613 2714 1965 2429 1965 1885 
L 1965 1600 
C 1587 1600 1133 1549 774 1357 
C 371 1133 256 813 256 570 
C 256 77 832 -64 1171 -64 
C 1523 -64 1850 139 1990 511 
C 2003 233 2182 -18 2464 -18 
C 2598 -18 2938 70 2938 567 
L 2938 920 
L 2822 920 
L 2822 562 
C 2822 178 2650 128 2566 128 
C 2304 128 2304 458 2304 738 
L 2304 1653 
z
M 1965 870 
C 1965 317 1568 38 1216 38 
C 896 38 646 275 646 570 
C 646 761 730 1100 1101 1305 
C 1408 1478 1760 1504 1965 1504 
L 1965 870 
z
" transform="scale(0.015625)"/>
       <path id="CMR17-67" d="M 710 1164 
C 832 1068 1043 960 1299 960 
C 1805 960 2240 1357 2240 1888 
C 2240 2054 2189 2310 1997 2509 
C 2176 2692 2438 2752 2586 2752 
C 2611 2752 2650 2752 2682 2734 
C 2656 2728 2598 2703 2598 2605 
C 2598 2527 2656 2471 2739 2471 
C 2835 2471 2886 2533 2886 2614 
C 2886 2731 2790 2854 2586 2854 
C 2330 2854 2106 2738 1926 2580 
C 1734 2753 1504 2816 1299 2816 
C 794 2816 358 2419 358 1888 
C 358 1522 570 1292 634 1228 
C 442 1004 442 743 442 711 
C 442 545 506 302 723 168 
C 390 85 128 -169 128 -486 
C 128 -943 736 -1280 1466 -1280 
C 2170 -1280 2803 -956 2803 -479 
C 2803 384 1856 384 1363 384 
C 1216 384 954 384 922 391 
C 723 423 589 602 589 826 
C 589 883 589 1024 710 1164 
z
M 1299 1068 
C 736 1068 736 1760 736 1889 
C 736 2016 736 2708 1299 2708 
C 1862 2708 1862 2016 1862 1889 
C 1862 1760 1862 1068 1299 1068 
z
M 1466 -1171 
C 826 -1171 384 -835 384 -486 
C 384 -289 493 -105 634 -4 
C 794 104 858 104 1293 104 
C 1818 104 2547 104 2547 -486 
C 2547 -835 2106 -1171 1466 -1171 
z
" transform="scale(0.015625)"/>
      </defs>
      <use xlink:href="#CMR17-4e" transform="scale(0.996264)"/>
      <use xlink:href="#CMR17-75" transform="translate(69.07243 0) scale(0.996264)"/>
      <use xlink:href="#CMR17-6d" transform="translate(119.9678 0) scale(0.996264)"/>
      <use xlink:href="#CMR17-62" transform="translate(194.284936 0) scale(0.996264)"/>
      <use xlink:href="#CMR17-65" transform="translate(247.782744 0) scale(0.996264)"/>
      <use xlink:href="#CMR17-72" transform="translate(288.268404 0) scale(0.996264)"/>
      <use xlink:href="#CMR17-45" transform="translate(353.625139 0) scale(0.996264)"/>
      <use xlink:href="#CMR17-78" transform="translate(416.211439 0) scale(0.996264)"/>
      <use xlink:href="#CMR17-70" transform="translate(464.504355 0) scale(0.996264)"/>
      <use xlink:href="#CMR17-65" transform="translate(518.002164 0) scale(0.996264)"/>
      <use xlink:href="#CMR17-72" transform="translate(558.487824 0) scale(0.996264)"/>
      <use xlink:href="#CMR17-69" transform="translate(593.768592 0) scale(0.996264)"/>
      <use xlink:href="#CMR17-6d" transform="translate(618.63965 0) scale(0.996264)"/>
      <use xlink:href="#CMR17-65" transform="translate(695.55924 0) scale(0.996264)"/>
      <use xlink:href="#CMR17-6e" transform="translate(736.044901 0) scale(0.996264)"/>
      <use xlink:href="#CMR17-74" transform="translate(784.337816 0) scale(0.996264)"/>
      <use xlink:href="#CMR17-73" transform="translate(819.618584 0) scale(0.996264)"/>
      <use xlink:href="#CMR17-66" transform="translate(885.495888 0) scale(0.996264)"/>
      <use xlink:href="#CMR17-6f" transform="translate(912.969401 0) scale(0.996264)"/>
      <use xlink:href="#CMR17-72" transform="translate(958.659878 0) scale(0.996264)"/>
      <use xlink:href="#CMR17-54" transform="translate(1024.016612 0) scale(0.996264)"/>
      <use xlink:href="#CMR17-72" transform="translate(1082.719237 0) scale(0.996264)"/>
      <use xlink:href="#CMR17-61" transform="translate(1118.000005 0) scale(0.996264)"/>
      <use xlink:href="#CMR17-69" transform="translate(1163.690482 0) scale(0.996264)"/>
      <use xlink:href="#CMR17-6e" transform="translate(1188.56154 0) scale(0.996264)"/>
      <use xlink:href="#CMR17-69" transform="translate(1239.45691 0) scale(0.996264)"/>
      <use xlink:href="#CMR17-6e" transform="translate(1264.327969 0) scale(0.996264)"/>
      <use xlink:href="#CMR17-67" transform="translate(1315.223339 0) scale(0.996264)"/>
     </g>
    </g>
   </g>
   <g id="matplotlib.axis_2">
    <g id="ytick_1">
     <g id="line2d_59">
      <defs>
       <path id="mbff5753126" d="M 0 0 
L 3 0 
" style="stroke: #000000; stroke-width: 0.5"/>
      </defs>
      <g>
       <use xlink:href="#mbff5753126" x="33.792719" y="229.58218" style="stroke: #000000; stroke-width: 0.5"/>
      </g>
     </g>
     <g id="line2d_60">
      <defs>
       <path id="m9f8f81294b" d="M 0 0 
L -3 0 
" style="stroke: #000000; stroke-width: 0.5"/>
      </defs>
      <g>
       <use xlink:href="#m9f8f81294b" x="312.792719" y="229.58218" style="stroke: #000000; stroke-width: 0.5"/>
      </g>
     </g>
     <g id="text_8">
      <!-- $\mathdefault{0.7}$ -->
      <g transform="translate(17.56264 233.041429) scale(0.1 -0.1)">
       <defs>
        <path id="CMMI12-3a" d="M 1178 307 
C 1178 492 1024 619 870 619 
C 685 619 557 466 557 313 
C 557 128 710 0 864 0 
C 1050 0 1178 153 1178 307 
z
" transform="scale(0.015625)"/>
        <path id="CMR17-37" d="M 2886 3941 
L 2886 4081 
L 1382 4081 
C 634 4081 621 4165 595 4288 
L 480 4288 
L 294 3094 
L 410 3094 
C 429 3215 474 3540 550 3661 
C 589 3712 1062 3712 1171 3712 
L 2579 3712 
L 1869 2661 
C 1395 1954 1069 999 1069 165 
C 1069 89 1069 -128 1299 -128 
C 1530 -128 1530 89 1530 171 
L 1530 465 
C 1530 1508 1709 2196 2003 2636 
L 2886 3941 
z
" transform="scale(0.015625)"/>
       </defs>
       <use xlink:href="#CMR17-30" transform="scale(0.996264)"/>
       <use xlink:href="#CMMI12-3a" transform="translate(45.690477 0) scale(0.996264)"/>
       <use xlink:href="#CMR17-37" transform="translate(72.787654 0) scale(0.996264)"/>
      </g>
     </g>
    </g>
    <g id="ytick_2">
     <g id="line2d_61">
      <g>
       <use xlink:href="#mbff5753126" x="33.792719" y="191.527109" style="stroke: #000000; stroke-width: 0.5"/>
      </g>
     </g>
     <g id="line2d_62">
      <g>
       <use xlink:href="#m9f8f81294b" x="312.792719" y="191.527109" style="stroke: #000000; stroke-width: 0.5"/>
      </g>
     </g>
     <g id="text_9">
      <!-- $\mathdefault{0.8}$ -->
      <g transform="translate(17.56264 194.986358) scale(0.1 -0.1)">
       <defs>
        <path id="CMR17-38" d="M 1741 2264 
C 2144 2467 2554 2773 2554 3263 
C 2554 3841 1990 4179 1472 4179 
C 890 4179 378 3759 378 3180 
C 378 3021 416 2747 666 2505 
C 730 2442 998 2251 1171 2130 
C 883 1983 211 1634 211 934 
C 211 279 838 -128 1459 -128 
C 2144 -128 2720 362 2720 1010 
C 2720 1590 2330 1857 2074 2029 
L 1741 2264 
z
M 902 2822 
C 851 2854 595 3051 595 3351 
C 595 3739 998 4032 1459 4032 
C 1965 4032 2336 3676 2336 3262 
C 2336 2669 1670 2331 1638 2331 
C 1632 2331 1626 2331 1574 2370 
L 902 2822 
z
M 2080 1519 
C 2176 1449 2483 1240 2483 851 
C 2483 381 2010 25 1472 25 
C 890 25 448 438 448 940 
C 448 1443 838 1862 1280 2060 
L 2080 1519 
z
" transform="scale(0.015625)"/>
       </defs>
       <use xlink:href="#CMR17-30" transform="scale(0.996264)"/>
       <use xlink:href="#CMMI12-3a" transform="translate(45.690477 0) scale(0.996264)"/>
       <use xlink:href="#CMR17-38" transform="translate(72.787654 0) scale(0.996264)"/>
      </g>
     </g>
    </g>
    <g id="ytick_3">
     <g id="line2d_63">
      <g>
       <use xlink:href="#mbff5753126" x="33.792719" y="153.472038" style="stroke: #000000; stroke-width: 0.5"/>
      </g>
     </g>
     <g id="line2d_64">
      <g>
       <use xlink:href="#m9f8f81294b" x="312.792719" y="153.472038" style="stroke: #000000; stroke-width: 0.5"/>
      </g>
     </g>
     <g id="text_10">
      <!-- $\mathdefault{0.9}$ -->
      <g transform="translate(17.56264 156.931287) scale(0.1 -0.1)">
       <defs>
        <path id="CMR17-39" d="M 2253 1864 
C 2253 464 1670 31 1190 31 
C 1043 31 685 31 538 294 
C 704 268 826 357 826 518 
C 826 692 685 749 595 749 
C 538 749 365 723 365 506 
C 365 71 742 -128 1203 -128 
C 1939 -128 2688 674 2688 2073 
C 2688 3817 1971 4179 1485 4179 
C 851 4179 243 3628 243 2778 
C 243 1991 762 1408 1414 1408 
C 1952 1408 2189 1903 2253 2112 
L 2253 1864 
z
M 1427 1510 
C 1254 1510 1011 1542 813 1922 
C 678 2169 678 2461 678 2771 
C 678 3146 678 3405 858 3684 
C 947 3817 1114 4032 1485 4032 
C 2240 4032 2240 2885 2240 2632 
C 2240 2182 2035 1510 1427 1510 
z
" transform="scale(0.015625)"/>
       </defs>
       <use xlink:href="#CMR17-30" transform="scale(0.996264)"/>
       <use xlink:href="#CMMI12-3a" transform="translate(45.690477 0) scale(0.996264)"/>
       <use xlink:href="#CMR17-39" transform="translate(72.787654 0) scale(0.996264)"/>
      </g>
     </g>
    </g>
    <g id="ytick_4">
     <g id="line2d_65">
      <g>
       <use xlink:href="#mbff5753126" x="33.792719" y="115.416967" style="stroke: #000000; stroke-width: 0.5"/>
      </g>
     </g>
     <g id="line2d_66">
      <g>
       <use xlink:href="#m9f8f81294b" x="312.792719" y="115.416967" style="stroke: #000000; stroke-width: 0.5"/>
      </g>
     </g>
     <g id="text_11">
      <!-- $\mathdefault{1.0}$ -->
      <g transform="translate(17.56264 118.876216) scale(0.1 -0.1)">
       <use xlink:href="#CMR17-31" transform="scale(0.996264)"/>
       <use xlink:href="#CMMI12-3a" transform="translate(45.690477 0) scale(0.996264)"/>
       <use xlink:href="#CMR17-30" transform="translate(72.787654 0) scale(0.996264)"/>
      </g>
     </g>
    </g>
    <g id="ytick_5">
     <g id="line2d_67">
      <g>
       <use xlink:href="#mbff5753126" x="33.792719" y="77.361896" style="stroke: #000000; stroke-width: 0.5"/>
      </g>
     </g>
     <g id="line2d_68">
      <g>
       <use xlink:href="#m9f8f81294b" x="312.792719" y="77.361896" style="stroke: #000000; stroke-width: 0.5"/>
      </g>
     </g>
     <g id="text_12">
      <!-- $\mathdefault{1.1}$ -->
      <g transform="translate(17.56264 80.821146) scale(0.1 -0.1)">
       <use xlink:href="#CMR17-31" transform="scale(0.996264)"/>
       <use xlink:href="#CMMI12-3a" transform="translate(45.690477 0) scale(0.996264)"/>
       <use xlink:href="#CMR17-31" transform="translate(72.787654 0) scale(0.996264)"/>
      </g>
     </g>
    </g>
    <g id="ytick_6">
     <g id="line2d_69">
      <g>
       <use xlink:href="#mbff5753126" x="33.792719" y="39.306826" style="stroke: #000000; stroke-width: 0.5"/>
      </g>
     </g>
     <g id="line2d_70">
      <g>
       <use xlink:href="#m9f8f81294b" x="312.792719" y="39.306826" style="stroke: #000000; stroke-width: 0.5"/>
      </g>
     </g>
     <g id="text_13">
      <!-- $\mathdefault{1.2}$ -->
      <g transform="translate(17.56264 42.766075) scale(0.1 -0.1)">
       <use xlink:href="#CMR17-31" transform="scale(0.996264)"/>
       <use xlink:href="#CMMI12-3a" transform="translate(45.690477 0) scale(0.996264)"/>
       <use xlink:href="#CMR17-32" transform="translate(72.787654 0) scale(0.996264)"/>
      </g>
     </g>
    </g>
    <g id="ytick_7">
     <g id="line2d_71">
      <defs>
       <path id="m415bbcb882" d="M 0 0 
L 1.5 0 
" style="stroke: #000000; stroke-width: 0.5"/>
      </defs>
      <g>
       <use xlink:href="#m415bbcb882" x="33.792719" y="237.193194" style="stroke: #000000; stroke-width: 0.5"/>
      </g>
     </g>
     <g id="line2d_72">
      <defs>
       <path id="me064ed662f" d="M 0 0 
L -1.5 0 
" style="stroke: #000000; stroke-width: 0.5"/>
      </defs>
      <g>
       <use xlink:href="#me064ed662f" x="312.792719" y="237.193194" style="stroke: #000000; stroke-width: 0.5"/>
      </g>
     </g>
    </g>
    <g id="ytick_8">
     <g id="line2d_73">
      <g>
       <use xlink:href="#m415bbcb882" x="33.792719" y="221.971166" style="stroke: #000000; stroke-width: 0.5"/>
      </g>
     </g>
     <g id="line2d_74">
      <g>
       <use xlink:href="#me064ed662f" x="312.792719" y="221.971166" style="stroke: #000000; stroke-width: 0.5"/>
      </g>
     </g>
    </g>
    <g id="ytick_9">
     <g id="line2d_75">
      <g>
       <use xlink:href="#m415bbcb882" x="33.792719" y="214.360151" style="stroke: #000000; stroke-width: 0.5"/>
      </g>
     </g>
     <g id="line2d_76">
      <g>
       <use xlink:href="#me064ed662f" x="312.792719" y="214.360151" style="stroke: #000000; stroke-width: 0.5"/>
      </g>
     </g>
    </g>
    <g id="ytick_10">
     <g id="line2d_77">
      <g>
       <use xlink:href="#m415bbcb882" x="33.792719" y="206.749137" style="stroke: #000000; stroke-width: 0.5"/>
      </g>
     </g>
     <g id="line2d_78">
      <g>
       <use xlink:href="#me064ed662f" x="312.792719" y="206.749137" style="stroke: #000000; stroke-width: 0.5"/>
      </g>
     </g>
    </g>
    <g id="ytick_11">
     <g id="line2d_79">
      <g>
       <use xlink:href="#m415bbcb882" x="33.792719" y="199.138123" style="stroke: #000000; stroke-width: 0.5"/>
      </g>
     </g>
     <g id="line2d_80">
      <g>
       <use xlink:href="#me064ed662f" x="312.792719" y="199.138123" style="stroke: #000000; stroke-width: 0.5"/>
      </g>
     </g>
    </g>
    <g id="ytick_12">
     <g id="line2d_81">
      <g>
       <use xlink:href="#m415bbcb882" x="33.792719" y="183.916095" style="stroke: #000000; stroke-width: 0.5"/>
      </g>
     </g>
     <g id="line2d_82">
      <g>
       <use xlink:href="#me064ed662f" x="312.792719" y="183.916095" style="stroke: #000000; stroke-width: 0.5"/>
      </g>
     </g>
    </g>
    <g id="ytick_13">
     <g id="line2d_83">
      <g>
       <use xlink:href="#m415bbcb882" x="33.792719" y="176.305081" style="stroke: #000000; stroke-width: 0.5"/>
      </g>
     </g>
     <g id="line2d_84">
      <g>
       <use xlink:href="#me064ed662f" x="312.792719" y="176.305081" style="stroke: #000000; stroke-width: 0.5"/>
      </g>
     </g>
    </g>
    <g id="ytick_14">
     <g id="line2d_85">
      <g>
       <use xlink:href="#m415bbcb882" x="33.792719" y="168.694066" style="stroke: #000000; stroke-width: 0.5"/>
      </g>
     </g>
     <g id="line2d_86">
      <g>
       <use xlink:href="#me064ed662f" x="312.792719" y="168.694066" style="stroke: #000000; stroke-width: 0.5"/>
      </g>
     </g>
    </g>
    <g id="ytick_15">
     <g id="line2d_87">
      <g>
       <use xlink:href="#m415bbcb882" x="33.792719" y="161.083052" style="stroke: #000000; stroke-width: 0.5"/>
      </g>
     </g>
     <g id="line2d_88">
      <g>
       <use xlink:href="#me064ed662f" x="312.792719" y="161.083052" style="stroke: #000000; stroke-width: 0.5"/>
      </g>
     </g>
    </g>
    <g id="ytick_16">
     <g id="line2d_89">
      <g>
       <use xlink:href="#m415bbcb882" x="33.792719" y="145.861024" style="stroke: #000000; stroke-width: 0.5"/>
      </g>
     </g>
     <g id="line2d_90">
      <g>
       <use xlink:href="#me064ed662f" x="312.792719" y="145.861024" style="stroke: #000000; stroke-width: 0.5"/>
      </g>
     </g>
    </g>
    <g id="ytick_17">
     <g id="line2d_91">
      <g>
       <use xlink:href="#m415bbcb882" x="33.792719" y="138.25001" style="stroke: #000000; stroke-width: 0.5"/>
      </g>
     </g>
     <g id="line2d_92">
      <g>
       <use xlink:href="#me064ed662f" x="312.792719" y="138.25001" style="stroke: #000000; stroke-width: 0.5"/>
      </g>
     </g>
    </g>
    <g id="ytick_18">
     <g id="line2d_93">
      <g>
       <use xlink:href="#m415bbcb882" x="33.792719" y="130.638996" style="stroke: #000000; stroke-width: 0.5"/>
      </g>
     </g>
     <g id="line2d_94">
      <g>
       <use xlink:href="#me064ed662f" x="312.792719" y="130.638996" style="stroke: #000000; stroke-width: 0.5"/>
      </g>
     </g>
    </g>
    <g id="ytick_19">
     <g id="line2d_95">
      <g>
       <use xlink:href="#m415bbcb882" x="33.792719" y="123.027981" style="stroke: #000000; stroke-width: 0.5"/>
      </g>
     </g>
     <g id="line2d_96">
      <g>
       <use xlink:href="#me064ed662f" x="312.792719" y="123.027981" style="stroke: #000000; stroke-width: 0.5"/>
      </g>
     </g>
    </g>
    <g id="ytick_20">
     <g id="line2d_97">
      <g>
       <use xlink:href="#m415bbcb882" x="33.792719" y="107.805953" style="stroke: #000000; stroke-width: 0.5"/>
      </g>
     </g>
     <g id="line2d_98">
      <g>
       <use xlink:href="#me064ed662f" x="312.792719" y="107.805953" style="stroke: #000000; stroke-width: 0.5"/>
      </g>
     </g>
    </g>
    <g id="ytick_21">
     <g id="line2d_99">
      <g>
       <use xlink:href="#m415bbcb882" x="33.792719" y="100.194939" style="stroke: #000000; stroke-width: 0.5"/>
      </g>
     </g>
     <g id="line2d_100">
      <g>
       <use xlink:href="#me064ed662f" x="312.792719" y="100.194939" style="stroke: #000000; stroke-width: 0.5"/>
      </g>
     </g>
    </g>
    <g id="ytick_22">
     <g id="line2d_101">
      <g>
       <use xlink:href="#m415bbcb882" x="33.792719" y="92.583925" style="stroke: #000000; stroke-width: 0.5"/>
      </g>
     </g>
     <g id="line2d_102">
      <g>
       <use xlink:href="#me064ed662f" x="312.792719" y="92.583925" style="stroke: #000000; stroke-width: 0.5"/>
      </g>
     </g>
    </g>
    <g id="ytick_23">
     <g id="line2d_103">
      <g>
       <use xlink:href="#m415bbcb882" x="33.792719" y="84.972911" style="stroke: #000000; stroke-width: 0.5"/>
      </g>
     </g>
     <g id="line2d_104">
      <g>
       <use xlink:href="#me064ed662f" x="312.792719" y="84.972911" style="stroke: #000000; stroke-width: 0.5"/>
      </g>
     </g>
    </g>
    <g id="ytick_24">
     <g id="line2d_105">
      <g>
       <use xlink:href="#m415bbcb882" x="33.792719" y="69.750882" style="stroke: #000000; stroke-width: 0.5"/>
      </g>
     </g>
     <g id="line2d_106">
      <g>
       <use xlink:href="#me064ed662f" x="312.792719" y="69.750882" style="stroke: #000000; stroke-width: 0.5"/>
      </g>
     </g>
    </g>
    <g id="ytick_25">
     <g id="line2d_107">
      <g>
       <use xlink:href="#m415bbcb882" x="33.792719" y="62.139868" style="stroke: #000000; stroke-width: 0.5"/>
      </g>
     </g>
     <g id="line2d_108">
      <g>
       <use xlink:href="#me064ed662f" x="312.792719" y="62.139868" style="stroke: #000000; stroke-width: 0.5"/>
      </g>
     </g>
    </g>
    <g id="ytick_26">
     <g id="line2d_109">
      <g>
       <use xlink:href="#m415bbcb882" x="33.792719" y="54.528854" style="stroke: #000000; stroke-width: 0.5"/>
      </g>
     </g>
     <g id="line2d_110">
      <g>
       <use xlink:href="#me064ed662f" x="312.792719" y="54.528854" style="stroke: #000000; stroke-width: 0.5"/>
      </g>
     </g>
    </g>
    <g id="ytick_27">
     <g id="line2d_111">
      <g>
       <use xlink:href="#m415bbcb882" x="33.792719" y="46.91784" style="stroke: #000000; stroke-width: 0.5"/>
      </g>
     </g>
     <g id="line2d_112">
      <g>
       <use xlink:href="#me064ed662f" x="312.792719" y="46.91784" style="stroke: #000000; stroke-width: 0.5"/>
      </g>
     </g>
    </g>
    <g id="ytick_28">
     <g id="line2d_113">
      <g>
       <use xlink:href="#m415bbcb882" x="33.792719" y="31.695811" style="stroke: #000000; stroke-width: 0.5"/>
      </g>
     </g>
     <g id="line2d_114">
      <g>
       <use xlink:href="#me064ed662f" x="312.792719" y="31.695811" style="stroke: #000000; stroke-width: 0.5"/>
      </g>
     </g>
    </g>
    <g id="ytick_29">
     <g id="line2d_115">
      <g>
       <use xlink:href="#m415bbcb882" x="33.792719" y="24.084797" style="stroke: #000000; stroke-width: 0.5"/>
      </g>
     </g>
     <g id="line2d_116">
      <g>
       <use xlink:href="#me064ed662f" x="312.792719" y="24.084797" style="stroke: #000000; stroke-width: 0.5"/>
      </g>
     </g>
    </g>
    <g id="text_14">
     <!-- Test RMSE (logS) -->
     <g transform="translate(11.07198 168.79885) rotate(-90) scale(0.1 -0.1)">
      <defs>
       <path id="CMR17-52" d="M 2509 2146 
C 3117 2268 3629 2676 3629 3186 
C 3629 3785 2950 4326 2054 4326 
L 333 4326 
L 333 4160 
C 774 4160 845 4160 845 3873 
L 845 415 
C 845 128 774 128 333 128 
L 333 -26 
C 518 -26 851 -26 1050 -26 
C 1248 -26 1581 -26 1766 -26 
L 1766 128 
C 1325 128 1254 128 1254 417 
L 1254 2112 
L 2003 2112 
C 2368 2112 2573 1964 2662 1881 
C 2918 1632 2918 1459 2918 1024 
C 2918 595 2918 377 3110 160 
C 3354 -102 3680 -128 3821 -128 
C 4294 -128 4365 396 4365 503 
C 4365 540 4365 585 4307 585 
C 4256 585 4250 547 4250 522 
C 4218 112 4032 -26 3834 -26 
C 3482 -26 3443 375 3405 764 
C 3386 898 3373 993 3360 1133 
C 3322 1452 3270 1917 2509 2146 
z
M 1984 2214 
L 1254 2214 
L 1254 3913 
C 1254 4129 1267 4160 1523 4160 
L 1990 4160 
C 2522 4160 3142 3977 3142 3190 
C 3142 2372 2464 2214 1984 2214 
z
" transform="scale(0.015625)"/>
       <path id="CMR17-4d" d="M 1338 4224 
C 1299 4320 1293 4320 1158 4320 
L 339 4320 
L 339 4160 
C 781 4160 851 4160 851 3875 
L 851 610 
C 851 451 851 153 339 153 
L 339 -13 
C 486 0 755 0 915 0 
C 1075 0 1344 0 1491 -13 
L 1491 153 
C 979 153 979 451 979 610 
L 979 4135 
L 986 4135 
L 2490 89 
C 2515 25 2528 -13 2579 -13 
C 2630 -13 2643 25 2669 89 
L 4186 4166 
L 4192 4166 
L 4192 438 
C 4192 153 4122 153 3680 153 
L 3680 -13 
C 3853 0 4198 0 4384 0 
C 4570 0 4922 0 5094 -13 
L 5094 153 
C 4653 153 4582 153 4582 438 
L 4582 3875 
C 4582 4160 4653 4160 5094 4160 
L 5094 4320 
L 4282 4320 
C 4147 4320 4141 4314 4102 4218 
L 2720 502 
L 1338 4224 
z
" transform="scale(0.015625)"/>
       <path id="CMR17-53" d="M 2803 4290 
C 2803 4404 2797 4411 2758 4411 
C 2720 4411 2707 4385 2682 4328 
L 2490 3907 
C 2246 4257 1875 4416 1472 4416 
C 819 4416 294 3901 294 3253 
C 294 3056 339 2776 557 2510 
C 794 2218 1018 2167 1530 2033 
C 1722 1982 2042 1899 2106 1874 
C 2470 1722 2662 1341 2662 985 
C 2662 527 2336 38 1779 38 
C 1094 38 454 419 410 1311 
C 403 1413 397 1419 352 1419 
C 301 1419 294 1413 294 1285 
L 294 -1 
C 294 -115 301 -122 339 -122 
C 384 -122 397 -90 486 108 
C 493 127 493 140 614 381 
C 934 -39 1472 -128 1779 -128 
C 2477 -128 2970 451 2970 1124 
C 2970 1454 2848 1708 2778 1823 
C 2509 2230 2221 2306 1914 2382 
C 1869 2402 1856 2402 1498 2490 
C 1152 2579 1005 2624 845 2796 
C 666 2992 602 3196 602 3399 
C 602 3812 934 4263 1478 4263 
C 2157 4263 2579 3786 2675 2993 
C 2694 2878 2701 2872 2746 2872 
C 2803 2872 2803 2891 2803 2999 
L 2803 4290 
z
" transform="scale(0.015625)"/>
       <path id="CMR17-28" d="M 1958 -1561 
C 1958 -1555 1958 -1542 1939 -1523 
C 1645 -1224 858 -407 858 1581 
C 858 3569 1632 4379 1946 4697 
C 1946 4704 1958 4717 1958 4736 
C 1958 4755 1939 4768 1914 4768 
C 1843 4768 1299 4296 986 3594 
C 666 2887 576 2199 576 1588 
C 576 1128 621 351 1005 -471 
C 1312 -1135 1837 -1600 1914 -1600 
C 1946 -1600 1958 -1587 1958 -1561 
z
" transform="scale(0.015625)"/>
       <path id="CMR17-6c" d="M 979 4396 
L 218 4326 
L 218 4160 
C 595 4160 653 4122 653 3817 
L 653 426 
C 653 184 627 153 218 153 
L 218 -13 
C 371 0 653 0 813 0 
C 979 0 1261 0 1414 -13 
L 1414 153 
C 1005 153 979 178 979 426 
L 979 4396 
z
" transform="scale(0.015625)"/>
       <path id="CMR17-29" d="M 1683 1581 
C 1683 2040 1638 2817 1254 3639 
C 947 4303 422 4768 346 4768 
C 326 4768 301 4761 301 4729 
C 301 4717 307 4710 314 4697 
C 621 4378 1402 3568 1402 1584 
C 1402 -407 627 -1217 314 -1537 
C 307 -1549 301 -1556 301 -1568 
C 301 -1600 326 -1600 346 -1600 
C 416 -1600 960 -1128 1274 -426 
C 1594 281 1683 969 1683 1581 
z
" transform="scale(0.015625)"/>
      </defs>
      <use xlink:href="#CMR17-54" transform="scale(0.996264)"/>
      <use xlink:href="#CMR17-65" transform="translate(58.702625 0) scale(0.996264)"/>
      <use xlink:href="#CMR17-73" transform="translate(99.188286 0) scale(0.996264)"/>
      <use xlink:href="#CMR17-74" transform="translate(134.989623 0) scale(0.996264)"/>
      <use xlink:href="#CMR17-52" transform="translate(200.346357 0) scale(0.996264)"/>
      <use xlink:href="#CMR17-4d" transform="translate(268.137459 0) scale(0.996264)"/>
      <use xlink:href="#CMR17-53" transform="translate(352.8244 0) scale(0.996264)"/>
      <use xlink:href="#CMR17-45" transform="translate(403.71977 0) scale(0.996264)"/>
      <use xlink:href="#CMR17-28" transform="translate(496.382037 0) scale(0.996264)"/>
      <use xlink:href="#CMR17-6c" transform="translate(531.662804 0) scale(0.996264)"/>
      <use xlink:href="#CMR17-6f" transform="translate(556.533863 0) scale(0.996264)"/>
      <use xlink:href="#CMR17-67" transform="translate(602.22434 0) scale(0.996264)"/>
      <use xlink:href="#CMR17-53" transform="translate(647.914817 0) scale(0.996264)"/>
      <use xlink:href="#CMR17-29" transform="translate(698.810187 0) scale(0.996264)"/>
     </g>
    </g>
   </g>
   <g id="line2d_117">
    <path d="M 46.474537 229.58218 
L 47.939232 229.58218 
L 50.380391 229.58218 
L 55.262708 229.58218 
L 69.909658 229.58218 
L 94.321243 229.58218 
L 143.144412 229.58218 
L 216.379166 229.58218 
L 300.110901 229.58218 
" clip-path="url(#p73b244d4aa)" style="fill: none; stroke-dasharray: 1,1.65; stroke-dashoffset: 0; stroke: #7f7f80"/>
   </g>
   <g id="line2d_118">
    <path d="M 46.474537 115.416967 
L 47.939232 115.416967 
L 50.380391 115.416967 
L 55.262708 115.416967 
L 69.909658 115.416967 
L 94.321243 115.416967 
L 143.144412 115.416967 
L 216.379166 115.416967 
L 300.110901 115.416967 
" clip-path="url(#p73b244d4aa)" style="fill: none; stroke-dasharray: 1,1.65; stroke-dashoffset: 0; stroke: #7f7f80"/>
   </g>
   <g id="LineCollection_1">
    <path d="M 46.474537 95.155242 
L 46.474537 62.043299 
" clip-path="url(#p73b244d4aa)" style="fill: none; stroke: #0087ff"/>
    <path d="M 47.939232 114.899258 
L 47.939232 95.829628 
" clip-path="url(#p73b244d4aa)" style="fill: none; stroke: #0087ff"/>
    <path d="M 50.380391 135.463835 
L 50.380391 100.80046 
" clip-path="url(#p73b244d4aa)" style="fill: none; stroke: #0087ff"/>
    <path d="M 55.262708 140.443735 
L 55.262708 125.399066 
" clip-path="url(#p73b244d4aa)" style="fill: none; stroke: #0087ff"/>
    <path d="M 69.909658 179.456151 
L 69.909658 152.232065 
" clip-path="url(#p73b244d4aa)" style="fill: none; stroke: #0087ff"/>
    <path d="M 94.321243 177.802633 
L 94.321243 158.763641 
" clip-path="url(#p73b244d4aa)" style="fill: none; stroke: #0087ff"/>
    <path d="M 143.144412 181.097634 
L 143.144412 169.641496 
" clip-path="url(#p73b244d4aa)" style="fill: none; stroke: #0087ff"/>
    <path d="M 216.379166 185.847543 
L 216.379166 173.376855 
" clip-path="url(#p73b244d4aa)" style="fill: none; stroke: #0087ff"/>
    <path d="M 300.110901 178.383532 
L 300.110901 169.609018 
" clip-path="url(#p73b244d4aa)" style="fill: none; stroke: #0087ff"/>
   </g>
   <g id="LineCollection_2">
    <path d="M 46.474537 88.305702 
L 46.474537 81.844298 
" clip-path="url(#p73b244d4aa)" style="fill: none; stroke: #ff7800"/>
    <path d="M 47.939232 76.407303 
L 47.939232 66.312898 
" clip-path="url(#p73b244d4aa)" style="fill: none; stroke: #ff7800"/>
    <path d="M 50.380391 101.382436 
L 50.380391 70.593915 
" clip-path="url(#p73b244d4aa)" style="fill: none; stroke: #ff7800"/>
    <path d="M 55.262708 107.181032 
L 55.262708 62.270501 
" clip-path="url(#p73b244d4aa)" style="fill: none; stroke: #ff7800"/>
    <path d="M 69.909658 86.091605 
L 69.909658 66.606768 
" clip-path="url(#p73b244d4aa)" style="fill: none; stroke: #ff7800"/>
    <path d="M 94.321243 97.045325 
L 94.321243 74.408942 
" clip-path="url(#p73b244d4aa)" style="fill: none; stroke: #ff7800"/>
    <path d="M 143.144412 109.467472 
L 143.144412 92.085216 
" clip-path="url(#p73b244d4aa)" style="fill: none; stroke: #ff7800"/>
    <path d="M 216.379166 123.208035 
L 216.379166 111.662517 
" clip-path="url(#p73b244d4aa)" style="fill: none; stroke: #ff7800"/>
    <path d="M 300.110901 135.755789 
L 300.110901 116.421764 
" clip-path="url(#p73b244d4aa)" style="fill: none; stroke: #ff7800"/>
   </g>
   <g id="LineCollection_3">
    <path d="M 46.474537 93.688175 
L 46.474537 82.344201 
" clip-path="url(#p73b244d4aa)" style="fill: none; stroke: #0087ff"/>
    <path d="M 47.939232 107.954936 
L 47.939232 57.475068 
" clip-path="url(#p73b244d4aa)" style="fill: none; stroke: #0087ff"/>
    <path d="M 50.380391 111.069625 
L 50.380391 90.649758 
" clip-path="url(#p73b244d4aa)" style="fill: none; stroke: #0087ff"/>
    <path d="M 55.262708 131.023345 
L 55.262708 97.929689 
" clip-path="url(#p73b244d4aa)" style="fill: none; stroke: #0087ff"/>
    <path d="M 69.909658 157.826342 
L 69.909658 141.184535 
" clip-path="url(#p73b244d4aa)" style="fill: none; stroke: #0087ff"/>
    <path d="M 94.321243 167.663538 
L 94.321243 162.061952 
" clip-path="url(#p73b244d4aa)" style="fill: none; stroke: #0087ff"/>
    <path d="M 143.144412 179.712343 
L 143.144412 170.879275 
" clip-path="url(#p73b244d4aa)" style="fill: none; stroke: #0087ff"/>
    <path d="M 216.379166 185.990628 
L 216.379166 180.03243 
" clip-path="url(#p73b244d4aa)" style="fill: none; stroke: #0087ff"/>
    <path d="M 300.110901 180.066988 
L 300.110901 179.117732 
" clip-path="url(#p73b244d4aa)" style="fill: none; stroke: #0087ff"/>
   </g>
   <g id="LineCollection_4">
    <path d="M 46.474537 92.32315 
L 46.474537 80.979177 
" clip-path="url(#p73b244d4aa)" style="fill: none; stroke: #ff7800"/>
    <path d="M 47.939232 99.996683 
L 47.939232 49.516816 
" clip-path="url(#p73b244d4aa)" style="fill: none; stroke: #ff7800"/>
    <path d="M 50.380391 87.62594 
L 50.380391 67.206074 
" clip-path="url(#p73b244d4aa)" style="fill: none; stroke: #ff7800"/>
    <path d="M 55.262708 61.075835 
L 55.262708 27.98218 
" clip-path="url(#p73b244d4aa)" style="fill: none; stroke: #ff7800"/>
    <path d="M 69.909658 112.702351 
L 69.909658 96.060543 
" clip-path="url(#p73b244d4aa)" style="fill: none; stroke: #ff7800"/>
    <path d="M 94.321243 98.623281 
L 94.321243 93.021695 
" clip-path="url(#p73b244d4aa)" style="fill: none; stroke: #ff7800"/>
    <path d="M 143.144412 122.711294 
L 143.144412 113.878225 
" clip-path="url(#p73b244d4aa)" style="fill: none; stroke: #ff7800"/>
    <path d="M 216.379166 131.295389 
L 216.379166 125.337191 
" clip-path="url(#p73b244d4aa)" style="fill: none; stroke: #ff7800"/>
    <path d="M 300.110901 127.115249 
L 300.110901 126.165994 
" clip-path="url(#p73b244d4aa)" style="fill: none; stroke: #ff7800"/>
   </g>
   <g id="line2d_119"/>
   <g id="line2d_120"/>
   <g id="line2d_121"/>
   <g id="line2d_122"/>
   <g id="line2d_123"/>
   <g id="line2d_124">
    <path d="M 46.474537 78.599271 
L 47.939232 105.364443 
L 50.380391 118.132148 
L 55.262708 132.9214 
L 69.909658 165.844108 
L 94.321243 168.283137 
L 143.144412 175.369565 
L 216.379166 179.612199 
L 300.110901 173.996275 
" clip-path="url(#p73b244d4aa)" style="fill: none; stroke: #0087ff; stroke-linecap: square"/>
    <defs>
     <path id="m376837ce3c" d="M 0 2 
C 0.530406 2 1.03916 1.789267 1.414214 1.414214 
C 1.789267 1.03916 2 0.530406 2 0 
C 2 -0.530406 1.789267 -1.03916 1.414214 -1.414214 
C 1.03916 -1.789267 0.530406 -2 0 -2 
C -0.530406 -2 -1.03916 -1.789267 -1.414214 -1.414214 
C -1.789267 -1.03916 -2 -0.530406 -2 0 
C -2 0.530406 -1.789267 1.03916 -1.414214 1.414214 
C -1.03916 1.789267 -0.530406 2 0 2 
z
" style="stroke: #0087ff"/>
    </defs>
    <g clip-path="url(#p73b244d4aa)">
     <use xlink:href="#m376837ce3c" x="46.474537" y="78.599271" style="fill: #0087ff; stroke: #0087ff"/>
     <use xlink:href="#m376837ce3c" x="47.939232" y="105.364443" style="fill: #0087ff; stroke: #0087ff"/>
     <use xlink:href="#m376837ce3c" x="50.380391" y="118.132148" style="fill: #0087ff; stroke: #0087ff"/>
     <use xlink:href="#m376837ce3c" x="55.262708" y="132.9214" style="fill: #0087ff; stroke: #0087ff"/>
     <use xlink:href="#m376837ce3c" x="69.909658" y="165.844108" style="fill: #0087ff; stroke: #0087ff"/>
     <use xlink:href="#m376837ce3c" x="94.321243" y="168.283137" style="fill: #0087ff; stroke: #0087ff"/>
     <use xlink:href="#m376837ce3c" x="143.144412" y="175.369565" style="fill: #0087ff; stroke: #0087ff"/>
     <use xlink:href="#m376837ce3c" x="216.379166" y="179.612199" style="fill: #0087ff; stroke: #0087ff"/>
     <use xlink:href="#m376837ce3c" x="300.110901" y="173.996275" style="fill: #0087ff; stroke: #0087ff"/>
    </g>
   </g>
   <g id="line2d_125">
    <path d="M 46.474537 85.075 
L 47.939232 71.360101 
L 50.380391 85.988175 
L 55.262708 84.725766 
L 69.909658 76.349187 
L 94.321243 85.727134 
L 143.144412 100.776344 
L 216.379166 117.435276 
L 300.110901 126.088777 
" clip-path="url(#p73b244d4aa)" style="fill: none; stroke: #ff7800; stroke-linecap: square"/>
    <defs>
     <path id="m3f8ac1d50b" d="M 0 2 
C 0.530406 2 1.03916 1.789267 1.414214 1.414214 
C 1.789267 1.03916 2 0.530406 2 0 
C 2 -0.530406 1.789267 -1.03916 1.414214 -1.414214 
C 1.03916 -1.789267 0.530406 -2 0 -2 
C -0.530406 -2 -1.03916 -1.789267 -1.414214 -1.414214 
C -1.789267 -1.03916 -2 -0.530406 -2 0 
C -2 0.530406 -1.789267 1.03916 -1.414214 1.414214 
C -1.03916 1.789267 -0.530406 2 0 2 
z
" style="stroke: #ff7800"/>
    </defs>
    <g clip-path="url(#p73b244d4aa)">
     <use xlink:href="#m3f8ac1d50b" x="46.474537" y="85.075" style="fill: #ff7800; stroke: #ff7800"/>
     <use xlink:href="#m3f8ac1d50b" x="47.939232" y="71.360101" style="fill: #ff7800; stroke: #ff7800"/>
     <use xlink:href="#m3f8ac1d50b" x="50.380391" y="85.988175" style="fill: #ff7800; stroke: #ff7800"/>
     <use xlink:href="#m3f8ac1d50b" x="55.262708" y="84.725766" style="fill: #ff7800; stroke: #ff7800"/>
     <use xlink:href="#m3f8ac1d50b" x="69.909658" y="76.349187" style="fill: #ff7800; stroke: #ff7800"/>
     <use xlink:href="#m3f8ac1d50b" x="94.321243" y="85.727134" style="fill: #ff7800; stroke: #ff7800"/>
     <use xlink:href="#m3f8ac1d50b" x="143.144412" y="100.776344" style="fill: #ff7800; stroke: #ff7800"/>
     <use xlink:href="#m3f8ac1d50b" x="216.379166" y="117.435276" style="fill: #ff7800; stroke: #ff7800"/>
     <use xlink:href="#m3f8ac1d50b" x="300.110901" y="126.088777" style="fill: #ff7800; stroke: #ff7800"/>
    </g>
   </g>
   <g id="line2d_126">
    <path d="M 46.474537 88.016188 
L 47.939232 82.715002 
L 50.380391 100.859691 
L 55.262708 114.476517 
L 69.909658 149.505439 
L 94.321243 164.862745 
L 143.144412 175.295809 
L 216.379166 183.011529 
L 300.110901 179.59236 
" clip-path="url(#p73b244d4aa)" style="fill: none; stroke-dasharray: 3.7,1.6; stroke-dashoffset: 0; stroke: #0087ff"/>
    <g clip-path="url(#p73b244d4aa)">
     <use xlink:href="#m376837ce3c" x="46.474537" y="88.016188" style="fill: #0087ff; stroke: #0087ff"/>
     <use xlink:href="#m376837ce3c" x="47.939232" y="82.715002" style="fill: #0087ff; stroke: #0087ff"/>
     <use xlink:href="#m376837ce3c" x="50.380391" y="100.859691" style="fill: #0087ff; stroke: #0087ff"/>
     <use xlink:href="#m376837ce3c" x="55.262708" y="114.476517" style="fill: #0087ff; stroke: #0087ff"/>
     <use xlink:href="#m376837ce3c" x="69.909658" y="149.505439" style="fill: #0087ff; stroke: #0087ff"/>
     <use xlink:href="#m376837ce3c" x="94.321243" y="164.862745" style="fill: #0087ff; stroke: #0087ff"/>
     <use xlink:href="#m376837ce3c" x="143.144412" y="175.295809" style="fill: #0087ff; stroke: #0087ff"/>
     <use xlink:href="#m376837ce3c" x="216.379166" y="183.011529" style="fill: #0087ff; stroke: #0087ff"/>
     <use xlink:href="#m376837ce3c" x="300.110901" y="179.59236" style="fill: #0087ff; stroke: #0087ff"/>
    </g>
   </g>
   <g id="line2d_127">
    <path d="M 46.474537 86.651163 
L 47.939232 74.756749 
L 50.380391 77.416007 
L 55.262708 44.529007 
L 69.909658 104.381447 
L 94.321243 95.822488 
L 143.144412 118.29476 
L 216.379166 128.31629 
L 300.110901 126.640622 
" clip-path="url(#p73b244d4aa)" style="fill: none; stroke-dasharray: 3.7,1.6; stroke-dashoffset: 0; stroke: #ff7800"/>
    <g clip-path="url(#p73b244d4aa)">
     <use xlink:href="#m3f8ac1d50b" x="46.474537" y="86.651163" style="fill: #ff7800; stroke: #ff7800"/>
     <use xlink:href="#m3f8ac1d50b" x="47.939232" y="74.756749" style="fill: #ff7800; stroke: #ff7800"/>
     <use xlink:href="#m3f8ac1d50b" x="50.380391" y="77.416007" style="fill: #ff7800; stroke: #ff7800"/>
     <use xlink:href="#m3f8ac1d50b" x="55.262708" y="44.529007" style="fill: #ff7800; stroke: #ff7800"/>
     <use xlink:href="#m3f8ac1d50b" x="69.909658" y="104.381447" style="fill: #ff7800; stroke: #ff7800"/>
     <use xlink:href="#m3f8ac1d50b" x="94.321243" y="95.822488" style="fill: #ff7800; stroke: #ff7800"/>
     <use xlink:href="#m3f8ac1d50b" x="143.144412" y="118.29476" style="fill: #ff7800; stroke: #ff7800"/>
     <use xlink:href="#m3f8ac1d50b" x="216.379166" y="128.31629" style="fill: #ff7800; stroke: #ff7800"/>
     <use xlink:href="#m3f8ac1d50b" x="300.110901" y="126.640622" style="fill: #ff7800; stroke: #ff7800"/>
    </g>
   </g>
   <g id="patch_3">
    <path d="M 33.792719 239.66218 
L 33.792719 17.90218 
" style="fill: none; stroke: #000000; stroke-width: 0.5; stroke-linejoin: miter; stroke-linecap: square"/>
   </g>
   <g id="patch_4">
    <path d="M 312.792719 239.66218 
L 312.792719 17.90218 
" style="fill: none; stroke: #000000; stroke-width: 0.5; stroke-linejoin: miter; stroke-linecap: square"/>
   </g>
   <g id="patch_5">
    <path d="M 33.792719 239.66218 
L 312.792719 239.66218 
" style="fill: none; stroke: #000000; stroke-width: 0.5; stroke-linejoin: miter; stroke-linecap: square"/>
   </g>
   <g id="patch_6">
    <path d="M 33.792719 17.90218 
L 312.792719 17.90218 
" style="fill: none; stroke: #000000; stroke-width: 0.5; stroke-linejoin: miter; stroke-linecap: square"/>
   </g>
   <g id="text_15">
    <!-- Approaching Aleatoric Limit -->
    <g transform="translate(99.566484 11.90218) scale(0.12 -0.12)">
     <defs>
      <path id="CMR17-41" d="M 2323 4378 
C 2291 4461 2278 4480 2214 4480 
C 2150 4480 2138 4461 2106 4378 
L 749 566 
C 627 223 371 153 147 153 
L 147 -13 
C 262 0 518 0 640 0 
C 800 0 1056 0 1210 -13 
L 1210 153 
C 909 153 864 361 864 439 
C 864 497 877 530 890 569 
L 1229 1536 
L 2906 1536 
L 3290 442 
C 3322 365 3322 352 3322 327 
C 3322 153 3046 153 2925 153 
L 2925 0 
C 3110 0 3443 0 3642 0 
C 3808 0 4128 0 4282 -13 
L 4282 153 
C 3942 153 3827 153 3744 387 
L 2323 4378 
z
M 2067 3893 
L 2848 1702 
L 1286 1702 
L 2067 3893 
z
" transform="scale(0.015625)"/>
      <path id="CMR17-63" d="M 2234 2240 
C 2112 2240 1933 2240 1933 2017 
C 1933 1838 2080 1787 2163 1787 
C 2208 1787 2394 1807 2394 2024 
C 2394 2467 1958 2803 1466 2803 
C 787 2803 211 2178 211 1363 
C 211 516 813 -64 1466 -64 
C 2259 -64 2458 677 2458 748 
C 2458 774 2451 793 2406 793 
C 2362 793 2355 787 2330 703 
C 2163 180 1798 51 1523 51 
C 1114 51 621 427 621 1369 
C 621 2338 1094 2688 1472 2688 
C 1722 2688 2093 2573 2234 2240 
z
" transform="scale(0.015625)"/>
      <path id="CMR17-68" d="M 2656 1933 
C 2656 2259 2592 2790 1837 2790 
C 1312 2790 1056 2368 979 2157 
L 973 2157 
L 973 4396 
L 211 4326 
L 211 4160 
C 589 4160 646 4122 646 3817 
L 646 426 
C 646 184 621 153 211 153 
L 211 -13 
C 365 0 646 0 813 0 
C 979 0 1267 0 1421 -13 
L 1421 153 
C 1011 153 986 178 986 428 
L 986 1658 
C 986 2247 1344 2688 1792 2688 
C 2266 2688 2317 2266 2317 1958 
L 2317 428 
C 2317 184 2291 153 1882 153 
L 1882 -13 
C 2035 0 2317 0 2483 0 
C 2650 0 2938 0 3091 -13 
L 3091 153 
C 2682 153 2656 178 2656 428 
L 2656 1933 
z
" transform="scale(0.015625)"/>
      <path id="CMR17-4c" d="M 3469 1615 
L 3354 1615 
C 3302 983 3219 166 2125 166 
L 1530 166 
C 1274 166 1261 197 1261 414 
L 1261 3898 
C 1261 4129 1274 4192 1760 4192 
L 1901 4192 
L 1901 4352 
C 1638 4352 1331 4352 1069 4352 
C 870 4352 512 4352 326 4352 
L 326 4192 
C 768 4192 838 4192 838 3905 
L 838 452 
C 838 166 768 166 326 166 
L 326 0 
L 3315 0 
L 3469 1615 
z
" transform="scale(0.015625)"/>
     </defs>
     <use xlink:href="#CMR17-41" transform="scale(0.996264)"/>
     <use xlink:href="#CMR17-70" transform="translate(69.07243 0) scale(0.996264)"/>
     <use xlink:href="#CMR17-70" transform="translate(119.9678 0) scale(0.996264)"/>
     <use xlink:href="#CMR17-72" transform="translate(170.863169 0) scale(0.996264)"/>
     <use xlink:href="#CMR17-6f" transform="translate(206.143937 0) scale(0.996264)"/>
     <use xlink:href="#CMR17-61" transform="translate(251.834414 0) scale(0.996264)"/>
     <use xlink:href="#CMR17-63" transform="translate(297.524891 0) scale(0.996264)"/>
     <use xlink:href="#CMR17-68" transform="translate(335.408098 0) scale(0.996264)"/>
     <use xlink:href="#CMR17-69" transform="translate(386.303468 0) scale(0.996264)"/>
     <use xlink:href="#CMR17-6e" transform="translate(411.174526 0) scale(0.996264)"/>
     <use xlink:href="#CMR17-67" transform="translate(462.069896 0) scale(0.996264)"/>
     <use xlink:href="#CMR17-41" transform="translate(537.836339 0) scale(0.996264)"/>
     <use xlink:href="#CMR17-6c" transform="translate(606.908769 0) scale(0.996264)"/>
     <use xlink:href="#CMR17-65" transform="translate(631.779828 0) scale(0.996264)"/>
     <use xlink:href="#CMR17-61" transform="translate(672.265488 0) scale(0.996264)"/>
     <use xlink:href="#CMR17-74" transform="translate(717.955965 0) scale(0.996264)"/>
     <use xlink:href="#CMR17-6f" transform="translate(753.236733 0) scale(0.996264)"/>
     <use xlink:href="#CMR17-72" transform="translate(798.92721 0) scale(0.996264)"/>
     <use xlink:href="#CMR17-69" transform="translate(834.207978 0) scale(0.996264)"/>
     <use xlink:href="#CMR17-63" transform="translate(859.079036 0) scale(0.996264)"/>
     <use xlink:href="#CMR17-4c" transform="translate(929.640663 0) scale(0.996264)"/>
     <use xlink:href="#CMR17-69" transform="translate(987.022071 0) scale(0.996264)"/>
     <use xlink:href="#CMR17-6d" transform="translate(1011.89313 0) scale(0.996264)"/>
     <use xlink:href="#CMR17-69" transform="translate(1088.81272 0) scale(0.996264)"/>
     <use xlink:href="#CMR17-74" transform="translate(1113.683778 0) scale(0.996264)"/>
    </g>
   </g>
   <g id="legend_1">
    <g id="line2d_128">
     <defs>
      <path id="m1388377b98" d="M 0 3 
C 0.795609 3 1.55874 2.683901 2.12132 2.12132 
C 2.683901 1.55874 3 0.795609 3 0 
C 3 -0.795609 2.683901 -1.55874 2.12132 -2.12132 
C 1.55874 -2.683901 0.795609 -3 0 -3 
C -0.795609 -3 -1.55874 -2.683901 -2.12132 -2.12132 
C -2.683901 -1.55874 -3 -0.795609 -3 0 
C -3 0.795609 -2.683901 1.55874 -2.12132 2.12132 
C -1.55874 2.683901 -0.795609 3 0 3 
z
" style="stroke: #ff7800"/>
     </defs>
     <g>
      <use xlink:href="#m1388377b98" x="334.251915" y="99.939234" style="fill: #ff7800; stroke: #ff7800"/>
     </g>
    </g>
    <g id="text_16">
     <!-- Leeds -->
     <g transform="translate(352.251915 103.439234) scale(0.1 -0.1)">
      <defs>
       <path id="CMR17-64" d="M 1869 4326 
L 1869 4160 
C 2246 4160 2304 4122 2304 3820 
L 2304 2345 
C 2278 2377 2016 2790 1498 2790 
C 845 2790 211 2208 211 1364 
C 211 525 806 -64 1434 -64 
C 1978 -64 2259 337 2291 380 
L 2291 -63 
L 3066 -63 
L 3066 128 
C 2688 128 2630 166 2630 473 
L 2630 4396 
L 1869 4326 
z
M 2291 755 
C 2291 563 2176 390 2029 262 
C 1811 70 1594 38 1472 38 
C 1286 38 621 134 621 1356 
C 621 2612 1363 2688 1530 2688 
C 1824 2688 2061 2522 2208 2291 
C 2291 2157 2291 2138 2291 2023 
L 2291 755 
z
" transform="scale(0.015625)"/>
      </defs>
      <use xlink:href="#CMR17-4c" transform="scale(0.996264)"/>
      <use xlink:href="#CMR17-65" transform="translate(57.381408 0) scale(0.996264)"/>
      <use xlink:href="#CMR17-65" transform="translate(97.867068 0) scale(0.996264)"/>
      <use xlink:href="#CMR17-64" transform="translate(138.352729 0) scale(0.996264)"/>
      <use xlink:href="#CMR17-73" transform="translate(189.248099 0) scale(0.996264)"/>
     </g>
    </g>
    <g id="line2d_129">
     <defs>
      <path id="m8d604de584" d="M 0 3 
C 0.795609 3 1.55874 2.683901 2.12132 2.12132 
C 2.683901 1.55874 3 0.795609 3 0 
C 3 -0.795609 2.683901 -1.55874 2.12132 -2.12132 
C 1.55874 -2.683901 0.795609 -3 0 -3 
C -0.795609 -3 -1.55874 -2.683901 -2.12132 -2.12132 
C -2.683901 -1.55874 -3 -0.795609 -3 0 
C -3 0.795609 -2.683901 1.55874 -2.12132 2.12132 
C -1.55874 2.683901 -0.795609 3 0 3 
z
" style="stroke: #0087ff"/>
     </defs>
     <g>
      <use xlink:href="#m8d604de584" x="334.251915" y="113.876412" style="fill: #0087ff; stroke: #0087ff"/>
     </g>
    </g>
    <g id="text_17">
     <!-- SolProp -->
     <g transform="translate(352.251915 117.376412) scale(0.1 -0.1)">
      <defs>
       <path id="CMR17-50" d="M 1267 2042 
L 2291 2042 
C 3117 2042 3718 2578 3718 3184 
C 3718 3791 3130 4352 2291 4352 
L 333 4352 
L 333 4186 
C 774 4186 845 4186 845 3899 
L 845 446 
C 845 160 774 160 333 160 
L 333 0 
C 518 0 858 0 1056 0 
C 1254 0 1594 0 1779 0 
L 1779 160 
C 1338 160 1267 160 1267 446 
L 1267 2042 
z
M 1254 2176 
L 1254 3938 
C 1254 4155 1267 4186 1523 4186 
L 2170 4186 
C 2995 4186 3232 3714 3232 3184 
C 3232 2604 2950 2176 2170 2176 
L 1254 2176 
z
" transform="scale(0.015625)"/>
      </defs>
      <use xlink:href="#CMR17-53" transform="scale(0.996264)"/>
      <use xlink:href="#CMR17-6f" transform="translate(50.89537 0) scale(0.996264)"/>
      <use xlink:href="#CMR17-6c" transform="translate(96.585847 0) scale(0.996264)"/>
      <use xlink:href="#CMR17-50" transform="translate(121.456905 0) scale(0.996264)"/>
      <use xlink:href="#CMR17-72" transform="translate(184.043206 0) scale(0.996264)"/>
      <use xlink:href="#CMR17-6f" transform="translate(219.323974 0) scale(0.996264)"/>
      <use xlink:href="#CMR17-70" transform="translate(265.014451 0) scale(0.996264)"/>
     </g>
    </g>
    <g id="line2d_130">
     <path d="M 324.251915 127.813591 
L 334.251915 127.813591 
L 344.251915 127.813591 
" style="fill: none; stroke-dasharray: 3.7,1.6; stroke-dashoffset: 0; stroke: #000000"/>
    </g>
    <g id="text_18">
     <!-- fastprop+Sobolev -->
     <g transform="translate(352.251915 131.313591) scale(0.1 -0.1)">
      <defs>
       <path id="CMR17-2b" d="M 2413 1472 
L 4109 1472 
C 4198 1472 4307 1472 4307 1580 
C 4307 1695 4205 1695 4109 1695 
L 2413 1695 
L 2413 3386 
C 2413 3475 2413 3584 2304 3584 
C 2189 3584 2189 3482 2189 3386 
L 2189 1695 
L 493 1695 
C 403 1695 294 1695 294 1587 
C 294 1472 397 1472 493 1472 
L 2189 1472 
L 2189 -218 
C 2189 -307 2189 -416 2298 -416 
C 2413 -416 2413 -314 2413 -218 
L 2413 1472 
z
" transform="scale(0.015625)"/>
       <path id="CMR17-76" d="M 2502 2163 
C 2560 2304 2662 2560 3034 2560 
L 3034 2726 
C 2912 2726 2752 2726 2630 2726 
C 2496 2726 2285 2726 2157 2732 
L 2157 2566 
C 2317 2553 2406 2477 2406 2311 
C 2406 2253 2406 2240 2368 2151 
L 1664 377 
L 902 2286 
C 864 2369 864 2381 864 2407 
C 864 2560 1075 2560 1171 2560 
L 1171 2732 
C 1018 2726 736 2726 576 2726 
C 403 2726 205 2726 64 2732 
L 64 2560 
C 307 2560 442 2560 518 2362 
L 1446 44 
C 1485 -51 1491 -64 1549 -64 
C 1606 -64 1613 -51 1651 44 
L 2502 2163 
z
" transform="scale(0.015625)"/>
      </defs>
      <use xlink:href="#CMR17-66" transform="scale(0.996264)"/>
      <use xlink:href="#CMR17-61" transform="translate(27.473512 0) scale(0.996264)"/>
      <use xlink:href="#CMR17-73" transform="translate(73.16399 0) scale(0.996264)"/>
      <use xlink:href="#CMR17-74" transform="translate(108.965327 0) scale(0.996264)"/>
      <use xlink:href="#CMR17-70" transform="translate(144.246095 0) scale(0.996264)"/>
      <use xlink:href="#CMR17-72" transform="translate(195.141465 0) scale(0.996264)"/>
      <use xlink:href="#CMR17-6f" transform="translate(230.422233 0) scale(0.996264)"/>
      <use xlink:href="#CMR17-70" transform="translate(276.11271 0) scale(0.996264)"/>
      <use xlink:href="#CMR17-2b" transform="translate(327.008079 0) scale(0.996264)"/>
      <use xlink:href="#CMR17-53" transform="translate(398.722868 0) scale(0.996264)"/>
      <use xlink:href="#CMR17-6f" transform="translate(449.618238 0) scale(0.996264)"/>
      <use xlink:href="#CMR17-62" transform="translate(495.308715 0) scale(0.996264)"/>
      <use xlink:href="#CMR17-6f" transform="translate(548.806523 0) scale(0.996264)"/>
      <use xlink:href="#CMR17-6c" transform="translate(594.497 0) scale(0.996264)"/>
      <use xlink:href="#CMR17-65" transform="translate(619.368059 0) scale(0.996264)"/>
      <use xlink:href="#CMR17-76" transform="translate(659.853719 0) scale(0.996264)"/>
     </g>
    </g>
    <g id="line2d_131">
     <path d="M 324.251915 141.750769 
L 334.251915 141.750769 
L 344.251915 141.750769 
" style="fill: none; stroke: #000000; stroke-linecap: square"/>
    </g>
    <g id="text_19">
     <!-- ChemProp+Sobolev -->
     <g transform="translate(352.251915 145.250769) scale(0.1 -0.1)">
      <defs>
       <path id="CMR17-43" d="M 3974 4289 
C 3974 4403 3968 4410 3930 4410 
C 3904 4410 3898 4403 3853 4327 
L 3571 3792 
C 3258 4187 2874 4416 2381 4416 
C 1286 4416 294 3456 294 2148 
C 294 826 1286 -128 2387 -128 
C 3366 -128 3974 730 3974 1461 
C 3974 1524 3974 1550 3917 1550 
C 3866 1550 3866 1531 3859 1474 
C 3808 585 3168 38 2477 38 
C 1824 38 781 495 781 2147 
C 781 3805 1843 4250 2464 4250 
C 3187 4250 3712 3628 3834 2745 
C 3846 2668 3846 2655 3904 2655 
C 3974 2655 3974 2668 3974 2783 
L 3974 4289 
z
" transform="scale(0.015625)"/>
      </defs>
      <use xlink:href="#CMR17-43" transform="scale(0.996264)"/>
      <use xlink:href="#CMR17-68" transform="translate(66.509881 0) scale(0.996264)"/>
      <use xlink:href="#CMR17-65" transform="translate(117.40525 0) scale(0.996264)"/>
      <use xlink:href="#CMR17-6d" transform="translate(157.890911 0) scale(0.996264)"/>
      <use xlink:href="#CMR17-50" transform="translate(234.810501 0) scale(0.996264)"/>
      <use xlink:href="#CMR17-72" transform="translate(297.396801 0) scale(0.996264)"/>
      <use xlink:href="#CMR17-6f" transform="translate(332.677569 0) scale(0.996264)"/>
      <use xlink:href="#CMR17-70" transform="translate(378.368046 0) scale(0.996264)"/>
      <use xlink:href="#CMR17-2b" transform="translate(429.263416 0) scale(0.996264)"/>
      <use xlink:href="#CMR17-53" transform="translate(500.978204 0) scale(0.996264)"/>
      <use xlink:href="#CMR17-6f" transform="translate(551.873574 0) scale(0.996264)"/>
      <use xlink:href="#CMR17-62" transform="translate(597.564051 0) scale(0.996264)"/>
      <use xlink:href="#CMR17-6f" transform="translate(651.06186 0) scale(0.996264)"/>
      <use xlink:href="#CMR17-6c" transform="translate(696.752337 0) scale(0.996264)"/>
      <use xlink:href="#CMR17-65" transform="translate(721.623395 0) scale(0.996264)"/>
      <use xlink:href="#CMR17-76" transform="translate(762.109056 0) scale(0.996264)"/>
     </g>
    </g>
    <g id="line2d_132">
     <path d="M 324.251915 155.687947 
L 334.251915 155.687947 
L 344.251915 155.687947 
" style="fill: none; stroke-dasharray: 1,1.65; stroke-dashoffset: 0; stroke: #7f7f80"/>
    </g>
    <g id="text_20">
     <!-- Experimental Accuracy Range -->
     <g transform="translate(352.251915 159.187947) scale(0.1 -0.1)">
      <defs>
       <path id="CMR17-79" d="M 2496 2197 
C 2656 2586 2944 2586 3034 2586 
L 3034 2752 
C 2912 2752 2752 2752 2630 2752 
C 2496 2752 2285 2752 2157 2758 
L 2157 2592 
C 2400 2573 2406 2394 2406 2343 
C 2406 2280 2394 2248 2362 2171 
L 1664 449 
L 902 2306 
C 870 2382 870 2426 870 2433 
C 870 2573 1018 2586 1171 2586 
L 1171 2758 
C 1018 2752 742 2752 582 2752 
C 410 2752 205 2752 64 2758 
L 64 2586 
C 410 2586 448 2554 531 2350 
L 1485 15 
C 1197 -738 1030 -1178 627 -1178 
C 557 -1178 397 -1159 282 -1044 
C 429 -1031 493 -942 493 -833 
C 493 -725 416 -629 288 -629 
C 147 -629 77 -725 77 -840 
C 77 -1095 339 -1280 627 -1280 
C 998 -1280 1229 -922 1357 -604 
L 2496 2197 
z
" transform="scale(0.015625)"/>
      </defs>
      <use xlink:href="#CMR17-45" transform="scale(0.996264)"/>
      <use xlink:href="#CMR17-78" transform="translate(62.586301 0) scale(0.996264)"/>
      <use xlink:href="#CMR17-70" transform="translate(110.879216 0) scale(0.996264)"/>
      <use xlink:href="#CMR17-65" transform="translate(164.377025 0) scale(0.996264)"/>
      <use xlink:href="#CMR17-72" transform="translate(204.862685 0) scale(0.996264)"/>
      <use xlink:href="#CMR17-69" transform="translate(240.143453 0) scale(0.996264)"/>
      <use xlink:href="#CMR17-6d" transform="translate(265.014512 0) scale(0.996264)"/>
      <use xlink:href="#CMR17-65" transform="translate(341.934101 0) scale(0.996264)"/>
      <use xlink:href="#CMR17-6e" transform="translate(382.419762 0) scale(0.996264)"/>
      <use xlink:href="#CMR17-74" transform="translate(430.712678 0) scale(0.996264)"/>
      <use xlink:href="#CMR17-61" transform="translate(465.993446 0) scale(0.996264)"/>
      <use xlink:href="#CMR17-6c" transform="translate(511.683923 0) scale(0.996264)"/>
      <use xlink:href="#CMR17-41" transform="translate(566.630948 0) scale(0.996264)"/>
      <use xlink:href="#CMR17-63" transform="translate(635.703377 0) scale(0.996264)"/>
      <use xlink:href="#CMR17-63" transform="translate(676.189038 0) scale(0.996264)"/>
      <use xlink:href="#CMR17-75" transform="translate(716.674698 0) scale(0.996264)"/>
      <use xlink:href="#CMR17-72" transform="translate(767.570068 0) scale(0.996264)"/>
      <use xlink:href="#CMR17-61" transform="translate(802.850836 0) scale(0.996264)"/>
      <use xlink:href="#CMR17-63" transform="translate(848.541313 0) scale(0.996264)"/>
      <use xlink:href="#CMR17-79" transform="translate(889.026973 0) scale(0.996264)"/>
      <use xlink:href="#CMR17-52" transform="translate(967.395856 0) scale(0.996264)"/>
      <use xlink:href="#CMR17-61" transform="translate(1035.186958 0) scale(0.996264)"/>
      <use xlink:href="#CMR17-6e" transform="translate(1080.877435 0) scale(0.996264)"/>
      <use xlink:href="#CMR17-67" transform="translate(1131.772804 0) scale(0.996264)"/>
      <use xlink:href="#CMR17-65" transform="translate(1177.463282 0) scale(0.996264)"/>
     </g>
    </g>
   </g>
  </g>
 </g>
 <defs>
  <clipPath id="p73b244d4aa">
   <rect x="33.792719" y="17.90218" width="279" height="221.76"/>
  </clipPath>
 </defs>
</svg>
