<?xml version="1.0" encoding="utf-8" standalone="no"?>
<!DOCTYPE svg PUBLIC "-//W3C//DTD SVG 1.1//EN"
  "http://www.w3.org/Graphics/SVG/1.1/DTD/svg11.dtd">
<svg xmlns:xlink="http://www.w3.org/1999/xlink" width="460.8pt" height="345.6pt" viewBox="0 0 460.8 345.6" xmlns="http://www.w3.org/2000/svg" version="1.1">
 <metadata>
  <rdf:RDF xmlns:dc="http://purl.org/dc/elements/1.1/" xmlns:cc="http://creativecommons.org/ns#" xmlns:rdf="http://www.w3.org/1999/02/22-rdf-syntax-ns#">
   <cc:Work>
    <dc:type rdf:resource="http://purl.org/dc/dcmitype/StillImage"/>
    <dc:date>2024-09-30T13:57:30.140145</dc:date>
    <dc:format>image/svg+xml</dc:format>
    <dc:creator>
     <cc:Agent>
      <dc:title>Matplotlib v3.6.2, https://matplotlib.org/</dc:title>
     </cc:Agent>
    </dc:creator>
   </cc:Work>
  </rdf:RDF>
 </metadata>
 <defs>
  <style type="text/css">*{stroke-linejoin: round; stroke-linecap: butt}</style>
 </defs>
 <g id="figure_1">
  <g id="patch_1">
   <path d="M 0 345.6 
L 460.8 345.6 
L 460.8 0 
L 0 0 
z
" style="fill: #ffffff"/>
  </g>
  <g id="axes_1">
   <g id="patch_2">
    <path d="M 57.6 307.584 
L 414.72 307.584 
L 414.72 41.472 
L 57.6 41.472 
z
" style="fill: #ffffff"/>
   </g>
   <g id="matplotlib.axis_1">
    <g id="xtick_1">
     <g id="line2d_1">
      <defs>
       <path id="mdab86f94a5" d="M 0 0 
L 0 3.5 
" style="stroke: #000000; stroke-width: 0.8"/>
      </defs>
      <g>
       <use xlink:href="#mdab86f94a5" x="72.582854" y="307.584" style="stroke: #000000; stroke-width: 0.8"/>
      </g>
     </g>
     <g id="text_1">
      <!-- 0 -->
      <g transform="translate(65.575042 333.832125) scale(0.26 -0.26)">
       <defs>
        <path id="SegoeUI-30" d="M 3188 2259 
Q 3188 1697 3086 1262 
Q 2984 828 2792 529 
Q 2600 231 2320 76 
Q 2041 -78 1684 -78 
Q 1347 -78 1083 70 
Q 819 219 637 503 
Q 456 788 362 1202 
Q 269 1616 269 2150 
Q 269 2738 367 3188 
Q 466 3638 656 3942 
Q 847 4247 1130 4401 
Q 1413 4556 1778 4556 
Q 3188 4556 3188 2259 
z
M 2663 2209 
Q 2663 4122 1753 4122 
Q 794 4122 794 2175 
Q 794 359 1734 359 
Q 2663 359 2663 2209 
z
" transform="scale(0.015625)"/>
       </defs>
       <use xlink:href="#SegoeUI-30"/>
      </g>
     </g>
    </g>
    <g id="xtick_2">
     <g id="line2d_2">
      <g>
       <use xlink:href="#mdab86f94a5" x="197.570167" y="307.584" style="stroke: #000000; stroke-width: 0.8"/>
      </g>
     </g>
     <g id="text_2">
      <!-- 2000 -->
      <g transform="translate(169.538917 333.832125) scale(0.26 -0.26)">
       <defs>
        <path id="SegoeUI-32" d="M 2413 3306 
Q 2413 3513 2348 3666 
Q 2284 3819 2173 3920 
Q 2063 4022 1913 4072 
Q 1763 4122 1588 4122 
Q 1438 4122 1294 4081 
Q 1150 4041 1014 3969 
Q 878 3897 751 3797 
Q 625 3697 516 3575 
L 516 4125 
Q 731 4334 998 4445 
Q 1266 4556 1650 4556 
Q 1925 4556 2159 4476 
Q 2394 4397 2566 4244 
Q 2738 4091 2836 3866 
Q 2934 3641 2934 3350 
Q 2934 3084 2873 2868 
Q 2813 2653 2689 2462 
Q 2566 2272 2378 2097 
Q 2191 1922 1938 1741 
Q 1622 1516 1417 1356 
Q 1213 1197 1092 1058 
Q 972 919 923 780 
Q 875 641 875 459 
L 3106 459 
L 3106 0 
L 341 0 
L 341 222 
Q 341 509 403 728 
Q 466 947 609 1144 
Q 753 1341 986 1537 
Q 1219 1734 1556 1981 
Q 1800 2156 1964 2315 
Q 2128 2475 2228 2634 
Q 2328 2794 2370 2958 
Q 2413 3122 2413 3306 
z
" transform="scale(0.015625)"/>
       </defs>
       <use xlink:href="#SegoeUI-32"/>
       <use xlink:href="#SegoeUI-30" x="53.90625"/>
       <use xlink:href="#SegoeUI-30" x="107.8125"/>
       <use xlink:href="#SegoeUI-30" x="161.71875"/>
      </g>
     </g>
    </g>
    <g id="xtick_3">
     <g id="line2d_3">
      <g>
       <use xlink:href="#mdab86f94a5" x="322.55748" y="307.584" style="stroke: #000000; stroke-width: 0.8"/>
      </g>
     </g>
     <g id="text_3">
      <!-- 4000 -->
      <g transform="translate(294.52623 333.832125) scale(0.26 -0.26)">
       <defs>
        <path id="SegoeUI-34" d="M 2656 4481 
L 2656 1522 
L 3231 1522 
L 3231 1053 
L 2656 1053 
L 2656 0 
L 2150 0 
L 2150 1053 
L 44 1053 
L 44 1497 
Q 338 1828 638 2204 
Q 938 2581 1211 2968 
Q 1484 3356 1717 3742 
Q 1950 4128 2109 4481 
L 2656 4481 
z
M 622 1522 
L 2150 1522 
L 2150 3716 
Q 1916 3306 1706 2984 
Q 1497 2663 1308 2400 
Q 1119 2138 947 1925 
Q 775 1713 622 1522 
z
" transform="scale(0.015625)"/>
       </defs>
       <use xlink:href="#SegoeUI-34"/>
       <use xlink:href="#SegoeUI-30" x="53.90625"/>
       <use xlink:href="#SegoeUI-30" x="107.8125"/>
       <use xlink:href="#SegoeUI-30" x="161.71875"/>
      </g>
     </g>
    </g>
    <g id="text_4">
     <!-- Number Experiments for Training -->
     <g transform="translate(46.624062 363.3365) scale(0.26 -0.26)">
      <defs>
       <path id="SegoeUI-4e" d="M 4200 0 
L 3556 0 
L 1250 3572 
Q 1163 3706 1106 3853 
L 1088 3853 
Q 1113 3709 1113 3238 
L 1113 0 
L 588 0 
L 588 4481 
L 1269 4481 
L 3513 966 
Q 3653 747 3694 666 
L 3706 666 
Q 3675 859 3675 1325 
L 3675 4481 
L 4200 4481 
L 4200 0 
z
" transform="scale(0.015625)"/>
       <path id="SegoeUI-75" d="M 3106 0 
L 2594 0 
L 2594 506 
L 2581 506 
Q 2263 -75 1594 -75 
Q 450 -75 450 1288 
L 450 3200 
L 959 3200 
L 959 1369 
Q 959 356 1734 356 
Q 2109 356 2351 632 
Q 2594 909 2594 1356 
L 2594 3200 
L 3106 3200 
L 3106 0 
z
" transform="scale(0.015625)"/>
       <path id="SegoeUI-6d" d="M 5063 0 
L 4550 0 
L 4550 1838 
Q 4550 2369 4386 2606 
Q 4222 2844 3834 2844 
Q 3506 2844 3276 2544 
Q 3047 2244 3047 1825 
L 3047 0 
L 2534 0 
L 2534 1900 
Q 2534 2844 1806 2844 
Q 1469 2844 1250 2561 
Q 1031 2278 1031 1825 
L 1031 0 
L 519 0 
L 519 3200 
L 1031 3200 
L 1031 2694 
L 1044 2694 
Q 1384 3275 2038 3275 
Q 2366 3275 2609 3092 
Q 2853 2909 2944 2613 
Q 3300 3275 4006 3275 
Q 5063 3275 5063 1972 
L 5063 0 
z
" transform="scale(0.015625)"/>
       <path id="SegoeUI-62" d="M 1044 463 
L 1031 463 
L 1031 0 
L 519 0 
L 519 4738 
L 1031 4738 
L 1031 2638 
L 1044 2638 
Q 1422 3275 2150 3275 
Q 2766 3275 3114 2845 
Q 3463 2416 3463 1694 
Q 3463 891 3072 408 
Q 2681 -75 2003 -75 
Q 1369 -75 1044 463 
z
M 1031 1753 
L 1031 1306 
Q 1031 909 1289 632 
Q 1547 356 1944 356 
Q 2409 356 2673 712 
Q 2938 1069 2938 1703 
Q 2938 2238 2691 2541 
Q 2444 2844 2022 2844 
Q 1575 2844 1303 2533 
Q 1031 2222 1031 1753 
z
" transform="scale(0.015625)"/>
       <path id="SegoeUI-65" d="M 3091 1472 
L 831 1472 
Q 844 938 1119 647 
Q 1394 356 1875 356 
Q 2416 356 2869 713 
L 2869 231 
Q 2447 -75 1753 -75 
Q 1075 -75 687 361 
Q 300 797 300 1588 
Q 300 2334 723 2804 
Q 1147 3275 1775 3275 
Q 2403 3275 2747 2869 
Q 3091 2463 3091 1741 
L 3091 1472 
z
M 2566 1906 
Q 2563 2350 2352 2597 
Q 2141 2844 1766 2844 
Q 1403 2844 1150 2584 
Q 897 2325 838 1906 
L 2566 1906 
z
" transform="scale(0.015625)"/>
       <path id="SegoeUI-72" d="M 2188 2681 
Q 2053 2784 1800 2784 
Q 1472 2784 1251 2475 
Q 1031 2166 1031 1631 
L 1031 0 
L 519 0 
L 519 3200 
L 1031 3200 
L 1031 2541 
L 1044 2541 
Q 1153 2878 1378 3067 
Q 1603 3256 1881 3256 
Q 2081 3256 2188 3213 
L 2188 2681 
z
" transform="scale(0.015625)"/>
       <path id="SegoeUI-20" transform="scale(0.015625)"/>
       <path id="SegoeUI-45" d="M 2963 0 
L 588 0 
L 588 4481 
L 2863 4481 
L 2863 4006 
L 1113 4006 
L 1113 2516 
L 2731 2516 
L 2731 2044 
L 1113 2044 
L 1113 475 
L 2963 475 
L 2963 0 
z
" transform="scale(0.015625)"/>
       <path id="SegoeUI-78" d="M 2856 3200 
L 1781 1581 
L 2838 0 
L 2241 0 
L 1613 1038 
Q 1553 1134 1472 1281 
L 1459 1281 
Q 1444 1253 1313 1038 
L 672 0 
L 81 0 
L 1172 1569 
L 128 3200 
L 725 3200 
L 1344 2106 
Q 1413 1984 1478 1856 
L 1491 1856 
L 2291 3200 
L 2856 3200 
z
" transform="scale(0.015625)"/>
       <path id="SegoeUI-70" d="M 1044 463 
L 1031 463 
L 1031 -1472 
L 519 -1472 
L 519 3200 
L 1031 3200 
L 1031 2638 
L 1044 2638 
Q 1422 3275 2150 3275 
Q 2769 3275 3116 2845 
Q 3463 2416 3463 1694 
Q 3463 891 3072 408 
Q 2681 -75 2003 -75 
Q 1381 -75 1044 463 
z
M 1031 1753 
L 1031 1306 
Q 1031 909 1289 632 
Q 1547 356 1944 356 
Q 2409 356 2673 712 
Q 2938 1069 2938 1703 
Q 2938 2238 2691 2541 
Q 2444 2844 2022 2844 
Q 1575 2844 1303 2533 
Q 1031 2222 1031 1753 
z
" transform="scale(0.015625)"/>
       <path id="SegoeUI-69" d="M 781 4013 
Q 644 4013 547 4106 
Q 450 4200 450 4344 
Q 450 4488 547 4583 
Q 644 4678 781 4678 
Q 922 4678 1020 4583 
Q 1119 4488 1119 4344 
Q 1119 4206 1020 4109 
Q 922 4013 781 4013 
z
M 1031 0 
L 519 0 
L 519 3200 
L 1031 3200 
L 1031 0 
z
" transform="scale(0.015625)"/>
       <path id="SegoeUI-6e" d="M 3175 0 
L 2663 0 
L 2663 1825 
Q 2663 2844 1919 2844 
Q 1534 2844 1282 2555 
Q 1031 2266 1031 1825 
L 1031 0 
L 519 0 
L 519 3200 
L 1031 3200 
L 1031 2669 
L 1044 2669 
Q 1406 3275 2094 3275 
Q 2619 3275 2897 2936 
Q 3175 2597 3175 1956 
L 3175 0 
z
" transform="scale(0.015625)"/>
       <path id="SegoeUI-74" d="M 2003 31 
Q 1822 -69 1525 -69 
Q 684 -69 684 869 
L 684 2763 
L 134 2763 
L 134 3200 
L 684 3200 
L 684 3981 
L 1197 4147 
L 1197 3200 
L 2003 3200 
L 2003 2763 
L 1197 2763 
L 1197 959 
Q 1197 638 1306 500 
Q 1416 363 1669 363 
Q 1863 363 2003 469 
L 2003 31 
z
" transform="scale(0.015625)"/>
       <path id="SegoeUI-73" d="M 325 116 
L 325 666 
Q 744 356 1247 356 
Q 1922 356 1922 806 
Q 1922 934 1864 1023 
Q 1806 1113 1707 1181 
Q 1609 1250 1476 1304 
Q 1344 1359 1191 1419 
Q 978 1503 817 1589 
Q 656 1675 548 1783 
Q 441 1891 386 2028 
Q 331 2166 331 2350 
Q 331 2575 434 2748 
Q 538 2922 709 3039 
Q 881 3156 1101 3215 
Q 1322 3275 1556 3275 
Q 1972 3275 2300 3131 
L 2300 2613 
Q 1947 2844 1488 2844 
Q 1344 2844 1228 2811 
Q 1113 2778 1030 2718 
Q 947 2659 901 2576 
Q 856 2494 856 2394 
Q 856 2269 901 2184 
Q 947 2100 1034 2034 
Q 1122 1969 1247 1916 
Q 1372 1863 1531 1800 
Q 1744 1719 1912 1633 
Q 2081 1547 2200 1439 
Q 2319 1331 2383 1190 
Q 2447 1050 2447 856 
Q 2447 619 2342 444 
Q 2238 269 2063 153 
Q 1888 38 1659 -18 
Q 1431 -75 1181 -75 
Q 688 -75 325 116 
z
" transform="scale(0.015625)"/>
       <path id="SegoeUI-66" d="M 2100 4288 
Q 1950 4372 1759 4372 
Q 1222 4372 1222 3694 
L 1222 3200 
L 1972 3200 
L 1972 2763 
L 1222 2763 
L 1222 0 
L 713 0 
L 713 2763 
L 166 2763 
L 166 3200 
L 713 3200 
L 713 3719 
Q 713 4222 1003 4514 
Q 1294 4806 1728 4806 
Q 1963 4806 2100 4750 
L 2100 4288 
z
" transform="scale(0.015625)"/>
       <path id="SegoeUI-6f" d="M 1856 -75 
Q 1147 -75 723 373 
Q 300 822 300 1563 
Q 300 2369 740 2822 
Q 1181 3275 1931 3275 
Q 2647 3275 3048 2834 
Q 3450 2394 3450 1613 
Q 3450 847 3017 386 
Q 2584 -75 1856 -75 
z
M 1894 2844 
Q 1400 2844 1112 2508 
Q 825 2172 825 1581 
Q 825 1013 1115 684 
Q 1406 356 1894 356 
Q 2391 356 2658 678 
Q 2925 1000 2925 1594 
Q 2925 2194 2658 2519 
Q 2391 2844 1894 2844 
z
" transform="scale(0.015625)"/>
       <path id="SegoeUI-54" d="M 3238 4006 
L 1944 4006 
L 1944 0 
L 1419 0 
L 1419 4006 
L 128 4006 
L 128 4481 
L 3238 4481 
L 3238 4006 
z
" transform="scale(0.015625)"/>
       <path id="SegoeUI-61" d="M 2809 0 
L 2297 0 
L 2297 500 
L 2284 500 
Q 1950 -75 1300 -75 
Q 822 -75 551 178 
Q 281 431 281 850 
Q 281 1747 1338 1894 
L 2297 2028 
Q 2297 2844 1638 2844 
Q 1059 2844 594 2450 
L 594 2975 
Q 1066 3275 1681 3275 
Q 2809 3275 2809 2081 
L 2809 0 
z
M 2297 1619 
L 1525 1513 
Q 1169 1463 987 1336 
Q 806 1209 806 888 
Q 806 653 973 504 
Q 1141 356 1419 356 
Q 1800 356 2048 623 
Q 2297 891 2297 1300 
L 2297 1619 
z
" transform="scale(0.015625)"/>
       <path id="SegoeUI-67" d="M 3250 256 
Q 3250 -1506 1563 -1506 
Q 969 -1506 525 -1281 
L 525 -769 
Q 1066 -1069 1556 -1069 
Q 2738 -1069 2738 188 
L 2738 538 
L 2725 538 
Q 2359 -75 1625 -75 
Q 1028 -75 664 351 
Q 300 778 300 1497 
Q 300 2313 692 2794 
Q 1084 3275 1766 3275 
Q 2413 3275 2725 2756 
L 2738 2756 
L 2738 3200 
L 3250 3200 
L 3250 256 
z
M 2738 1447 
L 2738 1919 
Q 2738 2300 2480 2572 
Q 2222 2844 1838 2844 
Q 1363 2844 1094 2498 
Q 825 2153 825 1531 
Q 825 997 1083 676 
Q 1341 356 1766 356 
Q 2197 356 2467 662 
Q 2738 969 2738 1447 
z
" transform="scale(0.015625)"/>
      </defs>
      <use xlink:href="#SegoeUI-4e"/>
      <use xlink:href="#SegoeUI-75" x="74.804688"/>
      <use xlink:href="#SegoeUI-6d" x="131.396484"/>
      <use xlink:href="#SegoeUI-62" x="217.529297"/>
      <use xlink:href="#SegoeUI-65" x="276.318359"/>
      <use xlink:href="#SegoeUI-72" x="328.613281"/>
      <use xlink:href="#SegoeUI-20" x="363.378906"/>
      <use xlink:href="#SegoeUI-45" x="390.771484"/>
      <use xlink:href="#SegoeUI-78" x="441.357422"/>
      <use xlink:href="#SegoeUI-70" x="487.255859"/>
      <use xlink:href="#SegoeUI-65" x="546.044922"/>
      <use xlink:href="#SegoeUI-72" x="598.339844"/>
      <use xlink:href="#SegoeUI-69" x="633.105469"/>
      <use xlink:href="#SegoeUI-6d" x="657.324219"/>
      <use xlink:href="#SegoeUI-65" x="743.457031"/>
      <use xlink:href="#SegoeUI-6e" x="795.751953"/>
      <use xlink:href="#SegoeUI-74" x="852.34375"/>
      <use xlink:href="#SegoeUI-73" x="886.230469"/>
      <use xlink:href="#SegoeUI-20" x="928.662109"/>
      <use xlink:href="#SegoeUI-66" x="956.054688"/>
      <use xlink:href="#SegoeUI-6f" x="987.353516"/>
      <use xlink:href="#SegoeUI-72" x="1045.947266"/>
      <use xlink:href="#SegoeUI-20" x="1080.712891"/>
      <use xlink:href="#SegoeUI-54" x="1108.105469"/>
      <use xlink:href="#SegoeUI-72" x="1151.748047"/>
      <use xlink:href="#SegoeUI-61" x="1186.513672"/>
      <use xlink:href="#SegoeUI-69" x="1237.392578"/>
      <use xlink:href="#SegoeUI-6e" x="1261.611328"/>
      <use xlink:href="#SegoeUI-69" x="1318.203125"/>
      <use xlink:href="#SegoeUI-6e" x="1342.421875"/>
      <use xlink:href="#SegoeUI-67" x="1399.013672"/>
     </g>
    </g>
   </g>
   <g id="matplotlib.axis_2">
    <g id="ytick_1">
     <g id="line2d_4">
      <defs>
       <path id="m81ace7c1ec" d="M 0 0 
L -3.5 0 
" style="stroke: #000000; stroke-width: 0.8"/>
      </defs>
      <g>
       <use xlink:href="#m81ace7c1ec" x="57.6" y="249.821915" style="stroke: #000000; stroke-width: 0.8"/>
      </g>
     </g>
     <g id="text_5">
      <!-- 0.8 -->
      <g transform="translate(16.93 259.445977) scale(0.26 -0.26)">
       <defs>
        <path id="SegoeUI-2e" d="M 697 -69 
Q 553 -69 451 34 
Q 350 138 350 281 
Q 350 425 451 529 
Q 553 634 697 634 
Q 844 634 947 529 
Q 1050 425 1050 281 
Q 1050 138 947 34 
Q 844 -69 697 -69 
z
" transform="scale(0.015625)"/>
        <path id="SegoeUI-38" d="M 281 1250 
Q 281 1428 337 1608 
Q 394 1788 498 1944 
Q 603 2100 758 2228 
Q 913 2356 1109 2431 
Q 819 2594 647 2848 
Q 475 3103 475 3413 
Q 475 3659 570 3868 
Q 666 4078 834 4231 
Q 1003 4384 1234 4470 
Q 1466 4556 1734 4556 
Q 2006 4556 2237 4468 
Q 2469 4381 2637 4228 
Q 2806 4075 2900 3865 
Q 2994 3656 2994 3413 
Q 2994 3103 2822 2848 
Q 2650 2594 2366 2431 
Q 2559 2356 2712 2228 
Q 2866 2100 2970 1944 
Q 3075 1788 3131 1608 
Q 3188 1428 3188 1250 
Q 3188 956 3081 712 
Q 2975 469 2783 295 
Q 2591 122 2323 25 
Q 2056 -72 1734 -72 
Q 1416 -72 1150 25 
Q 884 122 690 295 
Q 497 469 389 712 
Q 281 956 281 1250 
z
M 838 1294 
Q 838 1084 902 915 
Q 966 747 1083 628 
Q 1200 509 1367 445 
Q 1534 381 1738 381 
Q 1934 381 2100 447 
Q 2266 513 2386 631 
Q 2506 750 2573 919 
Q 2641 1088 2641 1294 
Q 2641 1481 2577 1645 
Q 2513 1809 2394 1934 
Q 2275 2059 2109 2131 
Q 1944 2203 1738 2203 
Q 1544 2203 1380 2136 
Q 1216 2069 1095 1948 
Q 975 1828 906 1661 
Q 838 1494 838 1294 
z
M 997 3372 
Q 997 3213 1055 3077 
Q 1113 2941 1214 2839 
Q 1316 2738 1450 2680 
Q 1584 2622 1738 2622 
Q 1891 2622 2027 2681 
Q 2163 2741 2263 2842 
Q 2363 2944 2422 3080 
Q 2481 3216 2481 3372 
Q 2481 3534 2423 3671 
Q 2366 3809 2266 3909 
Q 2166 4009 2030 4067 
Q 1894 4125 1738 4125 
Q 1572 4125 1436 4065 
Q 1300 4006 1201 3904 
Q 1103 3803 1050 3665 
Q 997 3528 997 3372 
z
" transform="scale(0.015625)"/>
       </defs>
       <use xlink:href="#SegoeUI-30"/>
       <use xlink:href="#SegoeUI-2e" x="53.90625"/>
       <use xlink:href="#SegoeUI-38" x="75.585938"/>
      </g>
     </g>
    </g>
    <g id="ytick_2">
     <g id="line2d_5">
      <g>
       <use xlink:href="#m81ace7c1ec" x="57.6" y="158.489745" style="stroke: #000000; stroke-width: 0.8"/>
      </g>
     </g>
     <g id="text_6">
      <!-- 1.0 -->
      <g transform="translate(16.93 168.113807) scale(0.26 -0.26)">
       <defs>
        <path id="SegoeUI-31" d="M 2263 0 
L 1750 0 
L 1750 3872 
Q 1691 3813 1577 3736 
Q 1463 3659 1320 3584 
Q 1178 3509 1020 3443 
Q 863 3378 713 3341 
L 713 3859 
Q 881 3906 1070 3986 
Q 1259 4066 1442 4164 
Q 1625 4263 1787 4370 
Q 1950 4478 2069 4581 
L 2263 4581 
L 2263 0 
z
" transform="scale(0.015625)"/>
       </defs>
       <use xlink:href="#SegoeUI-31"/>
       <use xlink:href="#SegoeUI-2e" x="53.90625"/>
       <use xlink:href="#SegoeUI-30" x="75.585938"/>
      </g>
     </g>
    </g>
    <g id="ytick_3">
     <g id="line2d_6">
      <g>
       <use xlink:href="#m81ace7c1ec" x="57.6" y="67.157575" style="stroke: #000000; stroke-width: 0.8"/>
      </g>
     </g>
     <g id="text_7">
      <!-- 1.2 -->
      <g transform="translate(16.93 76.781637) scale(0.26 -0.26)">
       <use xlink:href="#SegoeUI-31"/>
       <use xlink:href="#SegoeUI-2e" x="53.90625"/>
       <use xlink:href="#SegoeUI-32" x="75.585938"/>
      </g>
     </g>
    </g>
    <g id="text_8">
     <!-- Test RMSE (logS) -->
     <g transform="translate(6.811875 269.954094) rotate(-90) scale(0.26 -0.26)">
      <defs>
       <path id="SegoeUI-52" d="M 3800 0 
L 3175 0 
L 2425 1256 
Q 2322 1431 2225 1554 
Q 2128 1678 2026 1756 
Q 1925 1834 1808 1870 
Q 1691 1906 1544 1906 
L 1113 1906 
L 1113 0 
L 588 0 
L 588 4481 
L 1925 4481 
Q 2219 4481 2467 4407 
Q 2716 4334 2898 4184 
Q 3081 4034 3184 3811 
Q 3288 3588 3288 3288 
Q 3288 3053 3217 2858 
Q 3147 2663 3017 2509 
Q 2888 2356 2705 2248 
Q 2522 2141 2294 2081 
L 2294 2069 
Q 2406 2019 2489 1955 
Q 2572 1891 2647 1803 
Q 2722 1716 2795 1605 
Q 2869 1494 2959 1347 
L 3800 0 
z
M 1113 4006 
L 1113 2381 
L 1825 2381 
Q 2022 2381 2189 2440 
Q 2356 2500 2478 2611 
Q 2600 2722 2669 2883 
Q 2738 3044 2738 3244 
Q 2738 3603 2505 3804 
Q 2272 4006 1831 4006 
L 1113 4006 
z
" transform="scale(0.015625)"/>
       <path id="SegoeUI-4d" d="M 5156 0 
L 4634 0 
L 4634 3006 
Q 4634 3363 4678 3878 
L 4666 3878 
Q 4591 3575 4531 3444 
L 3000 0 
L 2744 0 
L 1216 3419 
Q 1150 3569 1081 3878 
L 1069 3878 
Q 1094 3609 1094 3000 
L 1094 0 
L 588 0 
L 588 4481 
L 1281 4481 
L 2656 1356 
Q 2816 997 2863 819 
L 2881 819 
Q 3016 1188 3097 1369 
L 4500 4481 
L 5156 4481 
L 5156 0 
z
" transform="scale(0.015625)"/>
       <path id="SegoeUI-53" d="M 378 181 
L 378 800 
Q 484 706 632 631 
Q 781 556 945 504 
Q 1109 453 1275 425 
Q 1441 397 1581 397 
Q 2066 397 2305 576 
Q 2544 756 2544 1094 
Q 2544 1275 2464 1409 
Q 2384 1544 2243 1655 
Q 2103 1766 1911 1867 
Q 1719 1969 1497 2081 
Q 1263 2200 1059 2322 
Q 856 2444 706 2591 
Q 556 2738 470 2923 
Q 384 3109 384 3359 
Q 384 3666 518 3892 
Q 653 4119 872 4266 
Q 1091 4413 1370 4484 
Q 1650 4556 1941 4556 
Q 2603 4556 2906 4397 
L 2906 3806 
Q 2509 4081 1888 4081 
Q 1716 4081 1544 4045 
Q 1372 4009 1237 3928 
Q 1103 3847 1018 3719 
Q 934 3591 934 3406 
Q 934 3234 998 3109 
Q 1063 2984 1188 2881 
Q 1313 2778 1492 2681 
Q 1672 2584 1906 2469 
Q 2147 2350 2362 2219 
Q 2578 2088 2740 1928 
Q 2903 1769 2998 1575 
Q 3094 1381 3094 1131 
Q 3094 800 2964 570 
Q 2834 341 2614 197 
Q 2394 53 2106 -11 
Q 1819 -75 1500 -75 
Q 1394 -75 1237 -58 
Q 1081 -41 918 -8 
Q 756 25 611 73 
Q 466 122 378 181 
z
" transform="scale(0.015625)"/>
       <path id="SegoeUI-28" d="M 1863 -1019 
L 1406 -1019 
Q 438 88 438 1709 
Q 438 3338 1406 4481 
L 1869 4481 
Q 888 3294 888 1716 
Q 888 150 1863 -1019 
z
" transform="scale(0.015625)"/>
       <path id="SegoeUI-6c" d="M 1031 0 
L 519 0 
L 519 4738 
L 1031 4738 
L 1031 0 
z
" transform="scale(0.015625)"/>
       <path id="SegoeUI-29" d="M 531 -1019 
L 75 -1019 
Q 1050 150 1050 1716 
Q 1050 3294 69 4481 
L 531 4481 
Q 1506 3338 1506 1709 
Q 1506 88 531 -1019 
z
" transform="scale(0.015625)"/>
      </defs>
      <use xlink:href="#SegoeUI-54"/>
      <use xlink:href="#SegoeUI-65" x="42.142578"/>
      <use xlink:href="#SegoeUI-73" x="94.4375"/>
      <use xlink:href="#SegoeUI-74" x="136.869141"/>
      <use xlink:href="#SegoeUI-20" x="170.755859"/>
      <use xlink:href="#SegoeUI-52" x="198.148438"/>
      <use xlink:href="#SegoeUI-4d" x="257.962891"/>
      <use xlink:href="#SegoeUI-53" x="347.757812"/>
      <use xlink:href="#SegoeUI-45" x="400.882812"/>
      <use xlink:href="#SegoeUI-20" x="451.46875"/>
      <use xlink:href="#SegoeUI-28" x="478.861328"/>
      <use xlink:href="#SegoeUI-6c" x="509.037109"/>
      <use xlink:href="#SegoeUI-6f" x="533.255859"/>
      <use xlink:href="#SegoeUI-67" x="591.849609"/>
      <use xlink:href="#SegoeUI-53" x="650.736328"/>
      <use xlink:href="#SegoeUI-29" x="703.861328"/>
     </g>
    </g>
   </g>
   <g id="line2d_7">
    <path d="M 73.832727 295.488 
L 75.707537 295.488 
L 78.83222 295.488 
L 85.081585 295.488 
L 103.829682 295.488 
L 135.076511 295.488 
L 197.570167 295.488 
L 291.310652 295.488 
L 398.487273 295.488 
" clip-path="url(#p8bc02fc093)" style="fill: none; stroke-dasharray: 1.5,2.475; stroke-dashoffset: 0; stroke: #7f7f80; stroke-width: 1.5"/>
   </g>
   <g id="line2d_8">
    <path d="M 73.832727 158.489745 
L 75.707537 158.489745 
L 78.83222 158.489745 
L 85.081585 158.489745 
L 103.829682 158.489745 
L 135.076511 158.489745 
L 197.570167 158.489745 
L 291.310652 158.489745 
L 398.487273 158.489745 
" clip-path="url(#p8bc02fc093)" style="fill: none; stroke-dasharray: 1.5,2.475; stroke-dashoffset: 0; stroke: #7f7f80; stroke-width: 1.5"/>
   </g>
   <g id="LineCollection_1">
    <path d="M 73.832727 134.175675 
L 73.832727 94.441343 
" clip-path="url(#p8bc02fc093)" style="fill: none; stroke: #0087ff; stroke-width: 1.5"/>
    <path d="M 75.707537 157.868494 
L 75.707537 134.984938 
" clip-path="url(#p8bc02fc093)" style="fill: none; stroke: #0087ff; stroke-width: 1.5"/>
    <path d="M 78.83222 182.545986 
L 78.83222 140.949936 
" clip-path="url(#p8bc02fc093)" style="fill: none; stroke: #0087ff; stroke-width: 1.5"/>
    <path d="M 85.081585 188.521866 
L 85.081585 170.468263 
" clip-path="url(#p8bc02fc093)" style="fill: none; stroke: #0087ff; stroke-width: 1.5"/>
    <path d="M 103.829682 235.336765 
L 103.829682 202.667863 
" clip-path="url(#p8bc02fc093)" style="fill: none; stroke: #0087ff; stroke-width: 1.5"/>
    <path d="M 135.076511 233.352544 
L 135.076511 210.505753 
" clip-path="url(#p8bc02fc093)" style="fill: none; stroke: #0087ff; stroke-width: 1.5"/>
    <path d="M 197.570167 237.306545 
L 197.570167 223.559179 
" clip-path="url(#p8bc02fc093)" style="fill: none; stroke: #0087ff; stroke-width: 1.5"/>
    <path d="M 291.310652 243.006436 
L 291.310652 228.04161 
" clip-path="url(#p8bc02fc093)" style="fill: none; stroke: #0087ff; stroke-width: 1.5"/>
    <path d="M 398.487273 234.049622 
L 398.487273 223.520206 
" clip-path="url(#p8bc02fc093)" style="fill: none; stroke: #0087ff; stroke-width: 1.5"/>
   </g>
   <g id="LineCollection_2">
    <path d="M 73.832727 125.956227 
L 73.832727 118.202541 
" clip-path="url(#p8bc02fc093)" style="fill: none; stroke: #ff7800; stroke-width: 1.5"/>
    <path d="M 75.707537 111.678148 
L 75.707537 99.564862 
" clip-path="url(#p8bc02fc093)" style="fill: none; stroke: #ff7800; stroke-width: 1.5"/>
    <path d="M 78.83222 141.648308 
L 78.83222 104.702082 
" clip-path="url(#p8bc02fc093)" style="fill: none; stroke: #ff7800; stroke-width: 1.5"/>
    <path d="M 85.081585 148.606623 
L 85.081585 94.713985 
" clip-path="url(#p8bc02fc093)" style="fill: none; stroke: #ff7800; stroke-width: 1.5"/>
    <path d="M 103.829682 123.29931 
L 103.829682 99.917506 
" clip-path="url(#p8bc02fc093)" style="fill: none; stroke: #ff7800; stroke-width: 1.5"/>
    <path d="M 135.076511 136.443774 
L 135.076511 109.280115 
" clip-path="url(#p8bc02fc093)" style="fill: none; stroke: #ff7800; stroke-width: 1.5"/>
    <path d="M 197.570167 151.350351 
L 197.570167 130.491644 
" clip-path="url(#p8bc02fc093)" style="fill: none; stroke: #ff7800; stroke-width: 1.5"/>
    <path d="M 291.310652 167.839026 
L 291.310652 153.984405 
" clip-path="url(#p8bc02fc093)" style="fill: none; stroke: #ff7800; stroke-width: 1.5"/>
    <path d="M 398.487273 182.896331 
L 398.487273 159.695502 
" clip-path="url(#p8bc02fc093)" style="fill: none; stroke: #ff7800; stroke-width: 1.5"/>
   </g>
   <g id="LineCollection_3">
    <path d="M 73.832727 132.415194 
L 73.832727 118.802425 
" clip-path="url(#p8bc02fc093)" style="fill: none; stroke: #0087ff; stroke-width: 1.5"/>
    <path d="M 75.707537 149.535307 
L 75.707537 88.959466 
" clip-path="url(#p8bc02fc093)" style="fill: none; stroke: #0087ff; stroke-width: 1.5"/>
    <path d="M 78.83222 153.272934 
L 78.83222 128.769094 
" clip-path="url(#p8bc02fc093)" style="fill: none; stroke: #0087ff; stroke-width: 1.5"/>
    <path d="M 85.081585 177.217398 
L 85.081585 137.505011 
" clip-path="url(#p8bc02fc093)" style="fill: none; stroke: #0087ff; stroke-width: 1.5"/>
    <path d="M 103.829682 209.380995 
L 103.829682 189.410827 
" clip-path="url(#p8bc02fc093)" style="fill: none; stroke: #0087ff; stroke-width: 1.5"/>
    <path d="M 135.076511 221.18563 
L 135.076511 214.463727 
" clip-path="url(#p8bc02fc093)" style="fill: none; stroke: #0087ff; stroke-width: 1.5"/>
    <path d="M 197.570167 235.644196 
L 197.570167 225.044514 
" clip-path="url(#p8bc02fc093)" style="fill: none; stroke: #0087ff; stroke-width: 1.5"/>
    <path d="M 291.310652 243.178138 
L 291.310652 236.0283 
" clip-path="url(#p8bc02fc093)" style="fill: none; stroke: #0087ff; stroke-width: 1.5"/>
    <path d="M 398.487273 236.06977 
L 398.487273 234.930663 
" clip-path="url(#p8bc02fc093)" style="fill: none; stroke: #0087ff; stroke-width: 1.5"/>
   </g>
   <g id="LineCollection_4">
    <path d="M 73.832727 130.777164 
L 73.832727 117.164396 
" clip-path="url(#p8bc02fc093)" style="fill: none; stroke: #ff7800; stroke-width: 1.5"/>
    <path d="M 75.707537 139.985404 
L 75.707537 79.409563 
" clip-path="url(#p8bc02fc093)" style="fill: none; stroke: #ff7800; stroke-width: 1.5"/>
    <path d="M 78.83222 125.140513 
L 78.83222 100.636673 
" clip-path="url(#p8bc02fc093)" style="fill: none; stroke: #ff7800; stroke-width: 1.5"/>
    <path d="M 85.081585 93.280386 
L 85.081585 53.568 
" clip-path="url(#p8bc02fc093)" style="fill: none; stroke: #ff7800; stroke-width: 1.5"/>
    <path d="M 103.829682 155.232205 
L 103.829682 135.262036 
" clip-path="url(#p8bc02fc093)" style="fill: none; stroke: #ff7800; stroke-width: 1.5"/>
    <path d="M 135.076511 138.337322 
L 135.076511 131.615419 
" clip-path="url(#p8bc02fc093)" style="fill: none; stroke: #ff7800; stroke-width: 1.5"/>
    <path d="M 197.570167 167.242937 
L 197.570167 156.643255 
" clip-path="url(#p8bc02fc093)" style="fill: none; stroke: #ff7800; stroke-width: 1.5"/>
    <path d="M 291.310652 177.543851 
L 291.310652 170.394013 
" clip-path="url(#p8bc02fc093)" style="fill: none; stroke: #ff7800; stroke-width: 1.5"/>
    <path d="M 398.487273 172.527683 
L 398.487273 171.388577 
" clip-path="url(#p8bc02fc093)" style="fill: none; stroke: #ff7800; stroke-width: 1.5"/>
   </g>
   <g id="line2d_9"/>
   <g id="line2d_10"/>
   <g id="line2d_11"/>
   <g id="line2d_12"/>
   <g id="line2d_13"/>
   <g id="line2d_14">
    <path d="M 73.832727 114.308509 
L 75.707537 146.426716 
L 78.83222 161.747961 
L 85.081585 179.495065 
L 103.829682 219.002314 
L 135.076511 221.929148 
L 197.570167 230.432862 
L 291.310652 235.524023 
L 398.487273 228.784914 
" clip-path="url(#p8bc02fc093)" style="fill: none; stroke: #0087ff; stroke-width: 1.5; stroke-linecap: square"/>
    <defs>
     <path id="mf125de3214" d="M 0 2 
C 0.530406 2 1.03916 1.789267 1.414214 1.414214 
C 1.789267 1.03916 2 0.530406 2 0 
C 2 -0.530406 1.789267 -1.03916 1.414214 -1.414214 
C 1.03916 -1.789267 0.530406 -2 0 -2 
C -0.530406 -2 -1.03916 -1.789267 -1.414214 -1.414214 
C -1.789267 -1.03916 -2 -0.530406 -2 0 
C -2 0.530406 -1.789267 1.03916 -1.414214 1.414214 
C -1.03916 1.789267 -0.530406 2 0 2 
z
" style="stroke: #0087ff"/>
    </defs>
    <g clip-path="url(#p8bc02fc093)">
     <use xlink:href="#mf125de3214" x="73.832727" y="114.308509" style="fill: #0087ff; stroke: #0087ff"/>
     <use xlink:href="#mf125de3214" x="75.707537" y="146.426716" style="fill: #0087ff; stroke: #0087ff"/>
     <use xlink:href="#mf125de3214" x="78.83222" y="161.747961" style="fill: #0087ff; stroke: #0087ff"/>
     <use xlink:href="#mf125de3214" x="85.081585" y="179.495065" style="fill: #0087ff; stroke: #0087ff"/>
     <use xlink:href="#mf125de3214" x="103.829682" y="219.002314" style="fill: #0087ff; stroke: #0087ff"/>
     <use xlink:href="#mf125de3214" x="135.076511" y="221.929148" style="fill: #0087ff; stroke: #0087ff"/>
     <use xlink:href="#mf125de3214" x="197.570167" y="230.432862" style="fill: #0087ff; stroke: #0087ff"/>
     <use xlink:href="#mf125de3214" x="291.310652" y="235.524023" style="fill: #0087ff; stroke: #0087ff"/>
     <use xlink:href="#mf125de3214" x="398.487273" y="228.784914" style="fill: #0087ff; stroke: #0087ff"/>
    </g>
   </g>
   <g id="line2d_15">
    <path d="M 73.832727 122.079384 
L 75.707537 105.621505 
L 78.83222 123.175195 
L 85.081585 121.660304 
L 103.829682 111.608408 
L 135.076511 122.861945 
L 197.570167 140.920997 
L 291.310652 160.911715 
L 398.487273 171.295916 
" clip-path="url(#p8bc02fc093)" style="fill: none; stroke: #ff7800; stroke-width: 1.5; stroke-linecap: square"/>
    <defs>
     <path id="me367bca1c4" d="M 0 2 
C 0.530406 2 1.03916 1.789267 1.414214 1.414214 
C 1.789267 1.03916 2 0.530406 2 0 
C 2 -0.530406 1.789267 -1.03916 1.414214 -1.414214 
C 1.03916 -1.789267 0.530406 -2 0 -2 
C -0.530406 -2 -1.03916 -1.789267 -1.414214 -1.414214 
C -1.789267 -1.03916 -2 -0.530406 -2 0 
C -2 0.530406 -1.789267 1.03916 -1.414214 1.414214 
C -1.03916 1.789267 -0.530406 2 0 2 
z
" style="stroke: #ff7800"/>
    </defs>
    <g clip-path="url(#p8bc02fc093)">
     <use xlink:href="#me367bca1c4" x="73.832727" y="122.079384" style="fill: #ff7800; stroke: #ff7800"/>
     <use xlink:href="#me367bca1c4" x="75.707537" y="105.621505" style="fill: #ff7800; stroke: #ff7800"/>
     <use xlink:href="#me367bca1c4" x="78.83222" y="123.175195" style="fill: #ff7800; stroke: #ff7800"/>
     <use xlink:href="#me367bca1c4" x="85.081585" y="121.660304" style="fill: #ff7800; stroke: #ff7800"/>
     <use xlink:href="#me367bca1c4" x="103.829682" y="111.608408" style="fill: #ff7800; stroke: #ff7800"/>
     <use xlink:href="#me367bca1c4" x="135.076511" y="122.861945" style="fill: #ff7800; stroke: #ff7800"/>
     <use xlink:href="#me367bca1c4" x="197.570167" y="140.920997" style="fill: #ff7800; stroke: #ff7800"/>
     <use xlink:href="#me367bca1c4" x="291.310652" y="160.911715" style="fill: #ff7800; stroke: #ff7800"/>
     <use xlink:href="#me367bca1c4" x="398.487273" y="171.295916" style="fill: #ff7800; stroke: #ff7800"/>
    </g>
   </g>
   <g id="line2d_16">
    <path d="M 73.832727 125.60881 
L 75.707537 119.247387 
L 78.83222 141.021014 
L 85.081585 157.361205 
L 103.829682 199.395911 
L 135.076511 217.824678 
L 197.570167 230.344355 
L 291.310652 239.603219 
L 398.487273 235.500217 
" clip-path="url(#p8bc02fc093)" style="fill: none; stroke-dasharray: 5.55,2.4; stroke-dashoffset: 0; stroke: #0087ff; stroke-width: 1.5"/>
    <g clip-path="url(#p8bc02fc093)">
     <use xlink:href="#mf125de3214" x="73.832727" y="125.60881" style="fill: #0087ff; stroke: #0087ff"/>
     <use xlink:href="#mf125de3214" x="75.707537" y="119.247387" style="fill: #0087ff; stroke: #0087ff"/>
     <use xlink:href="#mf125de3214" x="78.83222" y="141.021014" style="fill: #0087ff; stroke: #0087ff"/>
     <use xlink:href="#mf125de3214" x="85.081585" y="157.361205" style="fill: #0087ff; stroke: #0087ff"/>
     <use xlink:href="#mf125de3214" x="103.829682" y="199.395911" style="fill: #0087ff; stroke: #0087ff"/>
     <use xlink:href="#mf125de3214" x="135.076511" y="217.824678" style="fill: #0087ff; stroke: #0087ff"/>
     <use xlink:href="#mf125de3214" x="197.570167" y="230.344355" style="fill: #0087ff; stroke: #0087ff"/>
     <use xlink:href="#mf125de3214" x="291.310652" y="239.603219" style="fill: #0087ff; stroke: #0087ff"/>
     <use xlink:href="#mf125de3214" x="398.487273" y="235.500217" style="fill: #0087ff; stroke: #0087ff"/>
    </g>
   </g>
   <g id="line2d_17">
    <path d="M 73.832727 123.97078 
L 75.707537 109.697483 
L 78.83222 112.888593 
L 85.081585 73.424193 
L 103.829682 145.247121 
L 135.076511 134.97637 
L 197.570167 161.943096 
L 291.310652 173.968932 
L 398.487273 171.95813 
" clip-path="url(#p8bc02fc093)" style="fill: none; stroke-dasharray: 5.55,2.4; stroke-dashoffset: 0; stroke: #ff7800; stroke-width: 1.5"/>
    <g clip-path="url(#p8bc02fc093)">
     <use xlink:href="#me367bca1c4" x="73.832727" y="123.97078" style="fill: #ff7800; stroke: #ff7800"/>
     <use xlink:href="#me367bca1c4" x="75.707537" y="109.697483" style="fill: #ff7800; stroke: #ff7800"/>
     <use xlink:href="#me367bca1c4" x="78.83222" y="112.888593" style="fill: #ff7800; stroke: #ff7800"/>
     <use xlink:href="#me367bca1c4" x="85.081585" y="73.424193" style="fill: #ff7800; stroke: #ff7800"/>
     <use xlink:href="#me367bca1c4" x="103.829682" y="145.247121" style="fill: #ff7800; stroke: #ff7800"/>
     <use xlink:href="#me367bca1c4" x="135.076511" y="134.97637" style="fill: #ff7800; stroke: #ff7800"/>
     <use xlink:href="#me367bca1c4" x="197.570167" y="161.943096" style="fill: #ff7800; stroke: #ff7800"/>
     <use xlink:href="#me367bca1c4" x="291.310652" y="173.968932" style="fill: #ff7800; stroke: #ff7800"/>
     <use xlink:href="#me367bca1c4" x="398.487273" y="171.95813" style="fill: #ff7800; stroke: #ff7800"/>
    </g>
   </g>
   <g id="patch_3">
    <path d="M 57.6 307.584 
L 57.6 41.472 
" style="fill: none; stroke: #000000; stroke-width: 0.8; stroke-linejoin: miter; stroke-linecap: square"/>
   </g>
   <g id="patch_4">
    <path d="M 414.72 307.584 
L 414.72 41.472 
" style="fill: none; stroke: #000000; stroke-width: 0.8; stroke-linejoin: miter; stroke-linecap: square"/>
   </g>
   <g id="patch_5">
    <path d="M 57.6 307.584 
L 414.72 307.584 
" style="fill: none; stroke: #000000; stroke-width: 0.8; stroke-linejoin: miter; stroke-linecap: square"/>
   </g>
   <g id="patch_6">
    <path d="M 57.6 41.472 
L 414.72 41.472 
" style="fill: none; stroke: #000000; stroke-width: 0.8; stroke-linejoin: miter; stroke-linecap: square"/>
   </g>
   <g id="text_9">
    <!-- Approaching Aleatoric Limit -->
    <g transform="translate(45.03075 34.13025) scale(0.312 -0.312)">
     <defs>
      <path id="SegoeUI-41" d="M 4056 0 
L 3475 0 
L 3000 1256 
L 1100 1256 
L 653 0 
L 69 0 
L 1788 4481 
L 2331 4481 
L 4056 0 
z
M 2828 1728 
L 2125 3638 
Q 2091 3731 2056 3938 
L 2044 3938 
Q 2013 3747 1972 3638 
L 1275 1728 
L 2828 1728 
z
" transform="scale(0.015625)"/>
      <path id="SegoeUI-63" d="M 2700 147 
Q 2331 -75 1825 -75 
Q 1141 -75 720 370 
Q 300 816 300 1525 
Q 300 2316 753 2795 
Q 1206 3275 1963 3275 
Q 2384 3275 2706 3119 
L 2706 2594 
Q 2350 2844 1944 2844 
Q 1453 2844 1139 2492 
Q 825 2141 825 1569 
Q 825 1006 1120 681 
Q 1416 356 1913 356 
Q 2331 356 2700 634 
L 2700 147 
z
" transform="scale(0.015625)"/>
      <path id="SegoeUI-68" d="M 3175 0 
L 2663 0 
L 2663 1844 
Q 2663 2844 1919 2844 
Q 1544 2844 1287 2555 
Q 1031 2266 1031 1813 
L 1031 0 
L 519 0 
L 519 4738 
L 1031 4738 
L 1031 2669 
L 1044 2669 
Q 1413 3275 2094 3275 
Q 3175 3275 3175 1972 
L 3175 0 
z
" transform="scale(0.015625)"/>
      <path id="SegoeUI-4c" d="M 2913 0 
L 588 0 
L 588 4481 
L 1113 4481 
L 1113 475 
L 2913 475 
L 2913 0 
z
" transform="scale(0.015625)"/>
     </defs>
     <use xlink:href="#SegoeUI-41"/>
     <use xlink:href="#SegoeUI-70" x="64.501953"/>
     <use xlink:href="#SegoeUI-70" x="123.291016"/>
     <use xlink:href="#SegoeUI-72" x="182.080078"/>
     <use xlink:href="#SegoeUI-6f" x="215.470703"/>
     <use xlink:href="#SegoeUI-61" x="272.689453"/>
     <use xlink:href="#SegoeUI-63" x="323.568359"/>
     <use xlink:href="#SegoeUI-68" x="369.759766"/>
     <use xlink:href="#SegoeUI-69" x="426.351562"/>
     <use xlink:href="#SegoeUI-6e" x="450.570312"/>
     <use xlink:href="#SegoeUI-67" x="507.162109"/>
     <use xlink:href="#SegoeUI-20" x="566.048828"/>
     <use xlink:href="#SegoeUI-41" x="593.441406"/>
     <use xlink:href="#SegoeUI-6c" x="657.943359"/>
     <use xlink:href="#SegoeUI-65" x="682.162109"/>
     <use xlink:href="#SegoeUI-61" x="734.457031"/>
     <use xlink:href="#SegoeUI-74" x="785.335938"/>
     <use xlink:href="#SegoeUI-6f" x="818.472656"/>
     <use xlink:href="#SegoeUI-72" x="877.066406"/>
     <use xlink:href="#SegoeUI-69" x="911.832031"/>
     <use xlink:href="#SegoeUI-63" x="936.050781"/>
     <use xlink:href="#SegoeUI-20" x="982.242188"/>
     <use xlink:href="#SegoeUI-4c" x="1009.634766"/>
     <use xlink:href="#SegoeUI-69" x="1056.705078"/>
     <use xlink:href="#SegoeUI-6d" x="1080.923828"/>
     <use xlink:href="#SegoeUI-69" x="1167.056641"/>
     <use xlink:href="#SegoeUI-74" x="1191.275391"/>
    </g>
   </g>
   <g id="legend_1">
    <g id="patch_7">
     <path d="M 208.089875 274.2055 
L 628.648 274.2055 
Q 633.848 274.2055 633.848 269.0055 
L 633.848 80.0505 
Q 633.848 74.8505 628.648 74.8505 
L 208.089875 74.8505 
Q 202.889875 74.8505 202.889875 80.0505 
L 202.889875 269.0055 
Q 202.889875 274.2055 208.089875 274.2055 
z
" style="fill: #ffffff; opacity: 0.8; stroke: #cccccc; stroke-linejoin: miter"/>
    </g>
    <g id="line2d_18">
     <defs>
      <path id="m41933585e4" d="M 0 3 
C 0.795609 3 1.55874 2.683901 2.12132 2.12132 
C 2.683901 1.55874 3 0.795609 3 0 
C 3 -0.795609 2.683901 -1.55874 2.12132 -2.12132 
C 1.55874 -2.683901 0.795609 -3 0 -3 
C -0.795609 -3 -1.55874 -2.683901 -2.12132 -2.12132 
C -2.683901 -1.55874 -3 -0.795609 -3 0 
C -3 0.795609 -2.683901 1.55874 -2.12132 2.12132 
C -1.55874 2.683901 -0.795609 3 0 3 
z
" style="stroke: #ff7800"/>
     </defs>
     <g>
      <use xlink:href="#m41933585e4" x="239.289875" y="95.398625" style="fill: #ff7800; stroke: #ff7800"/>
     </g>
    </g>
    <g id="text_10">
     <!-- Leeds -->
     <g transform="translate(286.089875 104.498625) scale(0.26 -0.26)">
      <defs>
       <path id="SegoeUI-64" d="M 3250 0 
L 2738 0 
L 2738 544 
L 2725 544 
Q 2369 -75 1625 -75 
Q 1022 -75 661 354 
Q 300 784 300 1525 
Q 300 2319 700 2797 
Q 1100 3275 1766 3275 
Q 2425 3275 2725 2756 
L 2738 2756 
L 2738 4738 
L 3250 4738 
L 3250 0 
z
M 2738 1447 
L 2738 1919 
Q 2738 2306 2481 2575 
Q 2225 2844 1831 2844 
Q 1363 2844 1094 2500 
Q 825 2156 825 1550 
Q 825 997 1083 676 
Q 1341 356 1775 356 
Q 2203 356 2470 665 
Q 2738 975 2738 1447 
z
" transform="scale(0.015625)"/>
      </defs>
      <use xlink:href="#SegoeUI-4c"/>
      <use xlink:href="#SegoeUI-65" x="47.070312"/>
      <use xlink:href="#SegoeUI-65" x="99.365234"/>
      <use xlink:href="#SegoeUI-64" x="151.660156"/>
      <use xlink:href="#SegoeUI-73" x="210.546875"/>
     </g>
    </g>
    <g id="line2d_19">
     <defs>
      <path id="m70837a4f96" d="M 0 3 
C 0.795609 3 1.55874 2.683901 2.12132 2.12132 
C 2.683901 1.55874 3 0.795609 3 0 
C 3 -0.795609 2.683901 -1.55874 2.12132 -2.12132 
C 1.55874 -2.683901 0.795609 -3 0 -3 
C -0.795609 -3 -1.55874 -2.683901 -2.12132 -2.12132 
C -2.683901 -1.55874 -3 -0.795609 -3 0 
C -3 0.795609 -2.683901 1.55874 -2.12132 2.12132 
C -1.55874 2.683901 -0.795609 3 0 3 
z
" style="stroke: #0087ff"/>
     </defs>
     <g>
      <use xlink:href="#m70837a4f96" x="239.289875" y="133.62675" style="fill: #0087ff; stroke: #0087ff"/>
     </g>
    </g>
    <g id="text_11">
     <!-- SolProp -->
     <g transform="translate(286.089875 142.72675) scale(0.26 -0.26)">
      <defs>
       <path id="SegoeUI-50" d="M 1113 1694 
L 1113 0 
L 588 0 
L 588 4481 
L 1819 4481 
Q 2538 4481 2933 4131 
Q 3328 3781 3328 3144 
Q 3328 2506 2889 2100 
Q 2450 1694 1703 1694 
L 1113 1694 
z
M 1113 4006 
L 1113 2169 
L 1663 2169 
Q 2206 2169 2492 2417 
Q 2778 2666 2778 3119 
Q 2778 4006 1728 4006 
L 1113 4006 
z
" transform="scale(0.015625)"/>
      </defs>
      <use xlink:href="#SegoeUI-53"/>
      <use xlink:href="#SegoeUI-6f" x="53.125"/>
      <use xlink:href="#SegoeUI-6c" x="111.71875"/>
      <use xlink:href="#SegoeUI-50" x="135.9375"/>
      <use xlink:href="#SegoeUI-72" x="191.943359"/>
      <use xlink:href="#SegoeUI-6f" x="225.333984"/>
      <use xlink:href="#SegoeUI-70" x="283.927734"/>
     </g>
    </g>
    <g id="line2d_20">
     <path d="M 213.289875 172.131125 
L 239.289875 172.131125 
L 265.289875 172.131125 
" style="fill: none; stroke-dasharray: 5.55,2.4; stroke-dashoffset: 0; stroke: #000000; stroke-width: 1.5"/>
    </g>
    <g id="text_12">
     <!-- fastprop+Sobolev -->
     <g transform="translate(286.089875 181.231125) scale(0.26 -0.26)">
      <defs>
       <path id="SegoeUI-2b" d="M 3663 1656 
L 2400 1656 
L 2400 397 
L 1984 397 
L 1984 1656 
L 725 1656 
L 725 2075 
L 1984 2075 
L 1984 3334 
L 2400 3334 
L 2400 2075 
L 3663 2075 
L 3663 1656 
z
" transform="scale(0.015625)"/>
       <path id="SegoeUI-76" d="M 3034 3200 
L 1759 0 
L 1256 0 
L 44 3200 
L 606 3200 
L 1419 875 
Q 1509 619 1531 428 
L 1544 428 
Q 1575 669 1644 863 
L 2494 3200 
L 3034 3200 
z
" transform="scale(0.015625)"/>
      </defs>
      <use xlink:href="#SegoeUI-66"/>
      <use xlink:href="#SegoeUI-61" x="31.298828"/>
      <use xlink:href="#SegoeUI-73" x="82.177734"/>
      <use xlink:href="#SegoeUI-74" x="124.609375"/>
      <use xlink:href="#SegoeUI-70" x="158.496094"/>
      <use xlink:href="#SegoeUI-72" x="217.285156"/>
      <use xlink:href="#SegoeUI-6f" x="250.675781"/>
      <use xlink:href="#SegoeUI-70" x="309.269531"/>
      <use xlink:href="#SegoeUI-2b" x="368.058594"/>
      <use xlink:href="#SegoeUI-53" x="436.466797"/>
      <use xlink:href="#SegoeUI-6f" x="489.591797"/>
      <use xlink:href="#SegoeUI-62" x="548.185547"/>
      <use xlink:href="#SegoeUI-6f" x="606.974609"/>
      <use xlink:href="#SegoeUI-6c" x="665.568359"/>
      <use xlink:href="#SegoeUI-65" x="689.787109"/>
      <use xlink:href="#SegoeUI-76" x="742.082031"/>
     </g>
    </g>
    <g id="line2d_21">
     <path d="M 213.289875 210.35925 
L 239.289875 210.35925 
L 265.289875 210.35925 
" style="fill: none; stroke: #000000; stroke-width: 1.5; stroke-linecap: square"/>
    </g>
    <g id="text_13">
     <!-- ChemProp+Sobolev -->
     <g transform="translate(286.089875 219.45925) scale(0.26 -0.26)">
      <defs>
       <path id="SegoeUI-43" d="M 3638 188 
Q 3141 -75 2400 -75 
Q 1444 -75 869 540 
Q 294 1156 294 2156 
Q 294 3231 941 3893 
Q 1588 4556 2581 4556 
Q 3219 4556 3638 4372 
L 3638 3813 
Q 3156 4081 2575 4081 
Q 1803 4081 1323 3565 
Q 844 3050 844 2188 
Q 844 1369 1292 883 
Q 1741 397 2469 397 
Q 3144 397 3638 697 
L 3638 188 
z
" transform="scale(0.015625)"/>
      </defs>
      <use xlink:href="#SegoeUI-43"/>
      <use xlink:href="#SegoeUI-68" x="61.914062"/>
      <use xlink:href="#SegoeUI-65" x="118.505859"/>
      <use xlink:href="#SegoeUI-6d" x="170.800781"/>
      <use xlink:href="#SegoeUI-50" x="256.933594"/>
      <use xlink:href="#SegoeUI-72" x="312.939453"/>
      <use xlink:href="#SegoeUI-6f" x="346.330078"/>
      <use xlink:href="#SegoeUI-70" x="404.923828"/>
      <use xlink:href="#SegoeUI-2b" x="463.712891"/>
      <use xlink:href="#SegoeUI-53" x="532.121094"/>
      <use xlink:href="#SegoeUI-6f" x="585.246094"/>
      <use xlink:href="#SegoeUI-62" x="643.839844"/>
      <use xlink:href="#SegoeUI-6f" x="702.628906"/>
      <use xlink:href="#SegoeUI-6c" x="761.222656"/>
      <use xlink:href="#SegoeUI-65" x="785.441406"/>
      <use xlink:href="#SegoeUI-76" x="837.736328"/>
     </g>
    </g>
    <g id="line2d_22">
     <path d="M 213.289875 248.587375 
L 239.289875 248.587375 
L 265.289875 248.587375 
" style="fill: none; stroke-dasharray: 1.5,2.475; stroke-dashoffset: 0; stroke: #7f7f80; stroke-width: 1.5"/>
    </g>
    <g id="text_14">
     <!-- Experimental Accuracy Range -->
     <g transform="translate(286.089875 257.687375) scale(0.26 -0.26)">
      <defs>
       <path id="SegoeUI-79" d="M 3066 3200 
L 1594 -513 
Q 1200 -1506 488 -1506 
Q 288 -1506 153 -1466 
L 153 -1006 
Q 319 -1063 456 -1063 
Q 844 -1063 1038 -600 
L 1294 6 
L 44 3200 
L 613 3200 
L 1478 738 
Q 1494 691 1544 494 
L 1563 494 
Q 1578 569 1625 731 
L 2534 3200 
L 3066 3200 
z
" transform="scale(0.015625)"/>
      </defs>
      <use xlink:href="#SegoeUI-45"/>
      <use xlink:href="#SegoeUI-78" x="50.585938"/>
      <use xlink:href="#SegoeUI-70" x="96.484375"/>
      <use xlink:href="#SegoeUI-65" x="155.273438"/>
      <use xlink:href="#SegoeUI-72" x="207.568359"/>
      <use xlink:href="#SegoeUI-69" x="242.333984"/>
      <use xlink:href="#SegoeUI-6d" x="266.552734"/>
      <use xlink:href="#SegoeUI-65" x="352.685547"/>
      <use xlink:href="#SegoeUI-6e" x="404.980469"/>
      <use xlink:href="#SegoeUI-74" x="461.572266"/>
      <use xlink:href="#SegoeUI-61" x="495.458984"/>
      <use xlink:href="#SegoeUI-6c" x="546.337891"/>
      <use xlink:href="#SegoeUI-20" x="570.556641"/>
      <use xlink:href="#SegoeUI-41" x="597.949219"/>
      <use xlink:href="#SegoeUI-63" x="662.451172"/>
      <use xlink:href="#SegoeUI-63" x="708.642578"/>
      <use xlink:href="#SegoeUI-75" x="754.833984"/>
      <use xlink:href="#SegoeUI-72" x="811.425781"/>
      <use xlink:href="#SegoeUI-61" x="846.191406"/>
      <use xlink:href="#SegoeUI-63" x="897.070312"/>
      <use xlink:href="#SegoeUI-79" x="943.261719"/>
      <use xlink:href="#SegoeUI-20" x="991.650391"/>
      <use xlink:href="#SegoeUI-52" x="1019.042969"/>
      <use xlink:href="#SegoeUI-61" x="1078.857422"/>
      <use xlink:href="#SegoeUI-6e" x="1129.736328"/>
      <use xlink:href="#SegoeUI-67" x="1186.328125"/>
      <use xlink:href="#SegoeUI-65" x="1245.214844"/>
     </g>
    </g>
   </g>
  </g>
 </g>
 <defs>
  <clipPath id="p8bc02fc093">
   <rect x="57.6" y="41.472" width="357.12" height="266.112"/>
  </clipPath>
 </defs>
</svg>
